<?xml version="1.0" encoding="utf-8"?>
<svg version="1.1" xmlns:xlink="http://www.w3.org/1999/xlink" width="648px" height="378px" xmlns="http://www.w3.org/2000/svg">
  <g transform="matrix(1 0 0 1 -58 -186 )">
    <path d="M 58 186  L 706 186  L 706 564  L 58 564  L 58 186  " fill-rule="nonzero" fill="rgba(204, 204, 204, 1)" stroke="none" class="fill" />
    <path d="M 84 212  L 680 212  L 680 538  L 84 538  L 84 212  " fill-rule="nonzero" fill="rgba(255, 255, 255, 1)" stroke="none" class="fill" />
    <path d="M 423.31000000000006 299.4  C 407.434 299.4  394.96000000000004 286.926  394.96000000000004 271.04999999999995  C 394.96000000000004 255.17399999999998  407.434 242.7  423.31000000000006 242.7  C 439.18600000000004 242.7  451.66 255.17399999999998  451.66 271.04999999999995  C 451.66 286.926  439.18600000000004 299.4  423.31000000000006 299.4  " fill-rule="nonzero" fill="rgba(204, 204, 204, 1)" stroke="none" class="fill" />
    <path d="M 94 529  L 94 360.15  L 238.25 283.4  L 440.2 421.55  L 555.6 329.45  L 671 421.55  L 671 529  L 94 529  " fill-rule="nonzero" fill="rgba(22, 155, 213, 1)" stroke="none" class="fill" />
  </g>
</svg>