<?xml version="1.0" encoding="utf-8"?>
<svg version="1.1" xmlns:xlink="http://www.w3.org/1999/xlink" width="648px" height="378px" xmlns="http://www.w3.org/2000/svg">
  <g transform="matrix(1 0 0 1 -826 -186 )">
    <path d="M 826 186  L 1474 186  L 1474 564  L 826 564  L 826 186  " fill-rule="nonzero" fill="rgba(204, 204, 204, 1)" stroke="none" class="fill" />
    <path d="M 852 212  L 1448 212  L 1448 538  L 852 538  L 852 212  " fill-rule="nonzero" fill="rgba(255, 255, 255, 1)" stroke="none" class="fill" />
    <path d="M 1191.31 299.4  C 1175.434 299.4  1162.96 286.926  1162.96 271.04999999999995  C 1162.96 255.17399999999998  1175.434 242.7  1191.31 242.7  C 1207.186 242.7  1219.66 255.17399999999998  1219.66 271.04999999999995  C 1219.66 286.926  1207.186 299.4  1191.31 299.4  " fill-rule="nonzero" fill="rgba(204, 204, 204, 1)" stroke="none" class="fill" />
    <path d="M 862 529  L 862 360.15  L 1006.25 283.4  L 1208.2 421.55  L 1323.6 329.45  L 1439 421.55  L 1439 529  L 862 529  " fill-rule="nonzero" fill="rgba(22, 155, 213, 1)" stroke="none" class="fill" />
  </g>
</svg>