<?xml version="1.0" encoding="utf-8"?>
<svg version="1.1" xmlns:xlink="http://www.w3.org/1999/xlink" width="117px" height="83px" xmlns="http://www.w3.org/2000/svg">
  <defs>
    <pattern id="BGPattern" patternUnits="userSpaceOnUse" alignment="0 0" imageRepeat="None" />
    <mask fill="white" id="Clip1">
      <path d="M 56.38623046875 59.95345052083334  C 57.79541015625001 58.42241753472221  58.5 56.504123263888886  58.5 54.19856770833334  C 58.5 51.89301215277777  58.32861328125 49.776584201388886  57.98583984375 47.84928385416666  C 57.64306640625 45.921983506944436  57.08129882812501 44.06673177083334  56.300537109375 42.28352864583334  C 55.519775390625 40.50032552083333  54.36767578125001 39.09537760416667  52.84423828125 38.06868489583333  C 51.32080078125001 37.0419921875  49.47363281250001 36.52864583333333  47.302734375 36.52864583333333  C 47.07421875000001 36.67274305555556  46.50292968750001 36.99696180555556  45.5888671875 37.50130208333333  C 44.67480468750001 38.00564236111111  43.96069335937501 38.39290364583333  43.446533203125 38.6630859375  C 42.932373046875 38.93326822916667  42.25634765625001 39.24848090277777  41.41845703125 39.60872395833333  C 40.58056640625 39.968967013888886  39.76171875 40.23014322916667  38.9619140625 40.39225260416667  C 38.162109375 40.55436197916667  37.3623046875 40.63541666666667  36.5625 40.63541666666667  C 35.7626953125 40.63541666666667  34.962890625 40.55436197916667  34.1630859375 40.39225260416667  C 33.36328125 40.23014322916667  32.54443359375001 39.968967013888886  31.70654296875 39.60872395833333  C 30.868652343750004 39.24848090277777  30.192626953125 38.93326822916667  29.678466796875 38.6630859375  C 29.164306640625 38.39290364583333  28.4501953125 38.00564236111111  27.5361328125 37.50130208333333  C 26.6220703125 36.99696180555556  26.05078125 36.67274305555556  25.822265625 36.52864583333333  C 23.6513671875 36.52864583333333  21.80419921875 37.0419921875  20.28076171875 38.06868489583333  C 18.757324218750004 39.09537760416667  17.605224609375 40.50032552083333  16.824462890625 42.28352864583334  C 16.043701171875004 44.06673177083334  15.48193359375 45.921983506944436  15.13916015625 47.84928385416666  C 14.79638671875 49.776584201388886  14.625 51.89301215277777  14.625 54.19856770833334  C 14.625 56.504123263888886  15.329589843750002 58.42241753472221  16.73876953125 59.95345052083334  C 18.14794921875 61.484483506944436  19.880859375 62.25  21.9375 62  L 51.1875 62  C 53.244140625 62.25  54.97705078125 61.484483506944436  56.38623046875 59.95345052083334  Z M 45.731689453125 34.7724609375  C 48.26440429687501 32.37684461805555  49.53076171875001 29.485894097222218  49.53076171875 26.099609375  C 49.53076171875001 22.713324652777775  48.26440429687501 19.822374131944443  45.731689453125 17.4267578125  C 43.19897460937501 15.031141493055546  40.14257812500001 13.83333333333333  36.5625 13.83333333333333  C 32.982421875 13.83333333333333  29.926025390625004 15.031141493055546  27.393310546875 17.4267578125  C 24.860595703125 19.822374131944443  23.59423828125 22.713324652777775  23.59423828125 26.099609375  C 23.59423828125 29.485894097222218  24.860595703125 32.37684461805555  27.393310546875 34.7724609375  C 29.926025390625004 37.16807725694444  32.982421875 38.36588541666667  36.5625 38.36588541666667  C 40.14257812500001 38.36588541666667  43.19897460937501 37.16807725694444  45.731689453125 34.7724609375  Z M 101.86083984375 54.84700520833334  C 102.20361328125 54.52278645833334  102.375 54.108506944444436  102.375 53.60416666666666  L 102.375 50.14583333333334  C 102.375 49.64149305555555  102.20361328125 49.22721354166666  101.86083984375 48.90299479166666  C 101.51806640625 48.57877604166666  101.08007812500001 48.41666666666666  100.546875 48  L 67.640625 48  C 67.107421875 48.41666666666666  66.66943359375 48.57877604166666  66.32666015625 48.90299479166666  C 65.98388671875 49.22721354166666  65.8125 49.64149305555555  65.8125 50.14583333333334  L 65.8125 53.60416666666666  C 65.8125 54.108506944444436  65.98388671875 54.52278645833334  66.32666015625 54.84700520833334  C 66.66943359375 55.17122395833334  67.107421875 55.33333333333334  67.640625 55  L 100.546875 55  C 101.08007812500001 55.33333333333334  101.51806640625 55.17122395833334  101.86083984375 54.84700520833334  Z M 101.775146484375 40.9326171875  C 102.175048828125 40.55436197916667  102.375 40.09505208333333  102.375 39.5546875  L 102.375 36.52864583333333  C 102.375 35.98828125  102.175048828125 35.52897135416667  101.775146484375 35.15071614583333  C 101.375244140625 34.7724609375  100.8896484375 34.58333333333333  100.318359375 35  L 67.869140625 35  C 67.2978515625 34.58333333333333  66.812255859375 34.7724609375  66.412353515625 35.15071614583333  C 66.012451171875 35.52897135416667  65.8125 35.98828125  65.8125 36.52864583333333  L 65.8125 39.5546875  C 65.8125 40.09505208333333  66.012451171875 40.55436197916667  66.412353515625 40.9326171875  C 66.812255859375 41.31087239583333  67.2978515625 41.5  67.869140625 41  L 100.318359375 41  C 100.8896484375 41.5  101.375244140625 41.31087239583333  101.775146484375 40.9326171875  Z M 101.86083984375 27.18033854166667  C 102.20361328125 26.85611979166667  102.375 26.441840277777775  102.375 25.9375  L 102.375 22.47916666666667  C 102.375 21.97482638888888  102.20361328125 21.560546875  101.86083984375 21.236328125  C 101.51806640625 20.912109375  101.08007812500001 20.75  100.546875 21  L 67.640625 21  C 67.107421875 20.75  66.66943359375 20.912109375  66.32666015625 21.236328125  C 65.98388671875 21.560546875  65.8125 21.97482638888888  65.8125 22.47916666666667  L 65.8125 25.9375  C 65.8125 26.441840277777775  65.98388671875 26.85611979166667  66.32666015625 27.18033854166667  C 66.66943359375 27.50455729166667  67.107421875 27.66666666666667  67.640625 28  L 100.546875 28  C 101.08007812500001 27.66666666666667  101.51806640625 27.50455729166667  101.86083984375 27.18033854166667  Z M 114.31494140625 2.5397135416666696  C 116.10498046875001 4.232855902777773  117 6.26822916666667  117 8.64583333333333  L 117 74.35416666666667  C 117 76.73177083333333  116.10498046875001 78.76714409722223  114.31494140625 80.46028645833333  C 112.52490234375 82.15342881944444  110.373046875 83  107.859375 83  L 87.75 83  L 87.75 77.8125  C 87.75 77.30815972222223  87.57861328125 76.89388020833333  87.23583984375 76.56966145833333  C 86.89306640625 76.24544270833333  86.45507812500001 76.08333333333333  85.921875 76.08333333333333  L 82.265625 76.08333333333333  C 81.732421875 76.08333333333333  81.29443359375 76.24544270833333  80.95166015625 76.56966145833333  C 80.60888671875 76.89388020833333  80.4375 77.30815972222223  80.4375 77.8125  L 80.4375 83  L 36.5625 83  L 36.5625 77.8125  C 36.5625 77.30815972222223  36.39111328125 76.89388020833333  36.04833984375 76.56966145833333  C 35.70556640625 76.24544270833333  35.267578125 76.08333333333333  34.734375 76.08333333333333  L 31.078125 76.08333333333333  C 30.544921875000004 76.08333333333333  30.10693359375 76.24544270833333  29.76416015625 76.56966145833333  C 29.42138671875 76.89388020833333  29.25 77.30815972222223  29.25 77.8125  L 29.25 83  L 9.140625 83  C 6.626953125 83  4.475097656250001 82.15342881944444  2.68505859375 80.46028645833333  C 0.89501953125 78.76714409722223  0 76.73177083333333  0 74.35416666666667  L 0 8.64583333333333  C 0 6.26822916666667  0.89501953125 4.232855902777773  2.68505859375 2.5397135416666696  C 4.475097656250001 0.8465711805555474  6.626953125 0  9.140625 0  L 107.859375 0  C 110.373046875 0  112.52490234375 0.8465711805555474  114.31494140625 2.5397135416666696  Z " fill-rule="evenodd" />
    </mask>
  </defs>
  <g transform="matrix(1 0 0 1 -13 -2357 )">
    <path d="M 56.38623046875 59.95345052083334  C 57.79541015625001 58.42241753472221  58.5 56.504123263888886  58.5 54.19856770833334  C 58.5 51.89301215277777  58.32861328125 49.776584201388886  57.98583984375 47.84928385416666  C 57.64306640625 45.921983506944436  57.08129882812501 44.06673177083334  56.300537109375 42.28352864583334  C 55.519775390625 40.50032552083333  54.36767578125001 39.09537760416667  52.84423828125 38.06868489583333  C 51.32080078125001 37.0419921875  49.47363281250001 36.52864583333333  47.302734375 36.52864583333333  C 47.07421875000001 36.67274305555556  46.50292968750001 36.99696180555556  45.5888671875 37.50130208333333  C 44.67480468750001 38.00564236111111  43.96069335937501 38.39290364583333  43.446533203125 38.6630859375  C 42.932373046875 38.93326822916667  42.25634765625001 39.24848090277777  41.41845703125 39.60872395833333  C 40.58056640625 39.968967013888886  39.76171875 40.23014322916667  38.9619140625 40.39225260416667  C 38.162109375 40.55436197916667  37.3623046875 40.63541666666667  36.5625 40.63541666666667  C 35.7626953125 40.63541666666667  34.962890625 40.55436197916667  34.1630859375 40.39225260416667  C 33.36328125 40.23014322916667  32.54443359375001 39.968967013888886  31.70654296875 39.60872395833333  C 30.868652343750004 39.24848090277777  30.192626953125 38.93326822916667  29.678466796875 38.6630859375  C 29.164306640625 38.39290364583333  28.4501953125 38.00564236111111  27.5361328125 37.50130208333333  C 26.6220703125 36.99696180555556  26.05078125 36.67274305555556  25.822265625 36.52864583333333  C 23.6513671875 36.52864583333333  21.80419921875 37.0419921875  20.28076171875 38.06868489583333  C 18.757324218750004 39.09537760416667  17.605224609375 40.50032552083333  16.824462890625 42.28352864583334  C 16.043701171875004 44.06673177083334  15.48193359375 45.921983506944436  15.13916015625 47.84928385416666  C 14.79638671875 49.776584201388886  14.625 51.89301215277777  14.625 54.19856770833334  C 14.625 56.504123263888886  15.329589843750002 58.42241753472221  16.73876953125 59.95345052083334  C 18.14794921875 61.484483506944436  19.880859375 62.25  21.9375 62  L 51.1875 62  C 53.244140625 62.25  54.97705078125 61.484483506944436  56.38623046875 59.95345052083334  Z M 45.731689453125 34.7724609375  C 48.26440429687501 32.37684461805555  49.53076171875001 29.485894097222218  49.53076171875 26.099609375  C 49.53076171875001 22.713324652777775  48.26440429687501 19.822374131944443  45.731689453125 17.4267578125  C 43.19897460937501 15.031141493055546  40.14257812500001 13.83333333333333  36.5625 13.83333333333333  C 32.982421875 13.83333333333333  29.926025390625004 15.031141493055546  27.393310546875 17.4267578125  C 24.860595703125 19.822374131944443  23.59423828125 22.713324652777775  23.59423828125 26.099609375  C 23.59423828125 29.485894097222218  24.860595703125 32.37684461805555  27.393310546875 34.7724609375  C 29.926025390625004 37.16807725694444  32.982421875 38.36588541666667  36.5625 38.36588541666667  C 40.14257812500001 38.36588541666667  43.19897460937501 37.16807725694444  45.731689453125 34.7724609375  Z M 101.86083984375 54.84700520833334  C 102.20361328125 54.52278645833334  102.375 54.108506944444436  102.375 53.60416666666666  L 102.375 50.14583333333334  C 102.375 49.64149305555555  102.20361328125 49.22721354166666  101.86083984375 48.90299479166666  C 101.51806640625 48.57877604166666  101.08007812500001 48.41666666666666  100.546875 48  L 67.640625 48  C 67.107421875 48.41666666666666  66.66943359375 48.57877604166666  66.32666015625 48.90299479166666  C 65.98388671875 49.22721354166666  65.8125 49.64149305555555  65.8125 50.14583333333334  L 65.8125 53.60416666666666  C 65.8125 54.108506944444436  65.98388671875 54.52278645833334  66.32666015625 54.84700520833334  C 66.66943359375 55.17122395833334  67.107421875 55.33333333333334  67.640625 55  L 100.546875 55  C 101.08007812500001 55.33333333333334  101.51806640625 55.17122395833334  101.86083984375 54.84700520833334  Z M 101.775146484375 40.9326171875  C 102.175048828125 40.55436197916667  102.375 40.09505208333333  102.375 39.5546875  L 102.375 36.52864583333333  C 102.375 35.98828125  102.175048828125 35.52897135416667  101.775146484375 35.15071614583333  C 101.375244140625 34.7724609375  100.8896484375 34.58333333333333  100.318359375 35  L 67.869140625 35  C 67.2978515625 34.58333333333333  66.812255859375 34.7724609375  66.412353515625 35.15071614583333  C 66.012451171875 35.52897135416667  65.8125 35.98828125  65.8125 36.52864583333333  L 65.8125 39.5546875  C 65.8125 40.09505208333333  66.012451171875 40.55436197916667  66.412353515625 40.9326171875  C 66.812255859375 41.31087239583333  67.2978515625 41.5  67.869140625 41  L 100.318359375 41  C 100.8896484375 41.5  101.375244140625 41.31087239583333  101.775146484375 40.9326171875  Z M 101.86083984375 27.18033854166667  C 102.20361328125 26.85611979166667  102.375 26.441840277777775  102.375 25.9375  L 102.375 22.47916666666667  C 102.375 21.97482638888888  102.20361328125 21.560546875  101.86083984375 21.236328125  C 101.51806640625 20.912109375  101.08007812500001 20.75  100.546875 21  L 67.640625 21  C 67.107421875 20.75  66.66943359375 20.912109375  66.32666015625 21.236328125  C 65.98388671875 21.560546875  65.8125 21.97482638888888  65.8125 22.47916666666667  L 65.8125 25.9375  C 65.8125 26.441840277777775  65.98388671875 26.85611979166667  66.32666015625 27.18033854166667  C 66.66943359375 27.50455729166667  67.107421875 27.66666666666667  67.640625 28  L 100.546875 28  C 101.08007812500001 27.66666666666667  101.51806640625 27.50455729166667  101.86083984375 27.18033854166667  Z M 114.31494140625 2.5397135416666696  C 116.10498046875001 4.232855902777773  117 6.26822916666667  117 8.64583333333333  L 117 74.35416666666667  C 117 76.73177083333333  116.10498046875001 78.76714409722223  114.31494140625 80.46028645833333  C 112.52490234375 82.15342881944444  110.373046875 83  107.859375 83  L 87.75 83  L 87.75 77.8125  C 87.75 77.30815972222223  87.57861328125 76.89388020833333  87.23583984375 76.56966145833333  C 86.89306640625 76.24544270833333  86.45507812500001 76.08333333333333  85.921875 76.08333333333333  L 82.265625 76.08333333333333  C 81.732421875 76.08333333333333  81.29443359375 76.24544270833333  80.95166015625 76.56966145833333  C 80.60888671875 76.89388020833333  80.4375 77.30815972222223  80.4375 77.8125  L 80.4375 83  L 36.5625 83  L 36.5625 77.8125  C 36.5625 77.30815972222223  36.39111328125 76.89388020833333  36.04833984375 76.56966145833333  C 35.70556640625 76.24544270833333  35.267578125 76.08333333333333  34.734375 76.08333333333333  L 31.078125 76.08333333333333  C 30.544921875000004 76.08333333333333  30.10693359375 76.24544270833333  29.76416015625 76.56966145833333  C 29.42138671875 76.89388020833333  29.25 77.30815972222223  29.25 77.8125  L 29.25 83  L 9.140625 83  C 6.626953125 83  4.475097656250001 82.15342881944444  2.68505859375 80.46028645833333  C 0.89501953125 78.76714409722223  0 76.73177083333333  0 74.35416666666667  L 0 8.64583333333333  C 0 6.26822916666667  0.89501953125 4.232855902777773  2.68505859375 2.5397135416666696  C 4.475097656250001 0.8465711805555474  6.626953125 0  9.140625 0  L 107.859375 0  C 110.373046875 0  112.52490234375 0.8465711805555474  114.31494140625 2.5397135416666696  Z " fill-rule="nonzero" fill="rgba(255, 255, 255, 0.6980392156862745)" stroke="none" transform="matrix(1 0 0 1 13 2357 )" class="fill" />
    <path d="M 56.38623046875 59.95345052083334  C 57.79541015625001 58.42241753472221  58.5 56.504123263888886  58.5 54.19856770833334  C 58.5 51.89301215277777  58.32861328125 49.776584201388886  57.98583984375 47.84928385416666  C 57.64306640625 45.921983506944436  57.08129882812501 44.06673177083334  56.300537109375 42.28352864583334  C 55.519775390625 40.50032552083333  54.36767578125001 39.09537760416667  52.84423828125 38.06868489583333  C 51.32080078125001 37.0419921875  49.47363281250001 36.52864583333333  47.302734375 36.52864583333333  C 47.07421875000001 36.67274305555556  46.50292968750001 36.99696180555556  45.5888671875 37.50130208333333  C 44.67480468750001 38.00564236111111  43.96069335937501 38.39290364583333  43.446533203125 38.6630859375  C 42.932373046875 38.93326822916667  42.25634765625001 39.24848090277777  41.41845703125 39.60872395833333  C 40.58056640625 39.968967013888886  39.76171875 40.23014322916667  38.9619140625 40.39225260416667  C 38.162109375 40.55436197916667  37.3623046875 40.63541666666667  36.5625 40.63541666666667  C 35.7626953125 40.63541666666667  34.962890625 40.55436197916667  34.1630859375 40.39225260416667  C 33.36328125 40.23014322916667  32.54443359375001 39.968967013888886  31.70654296875 39.60872395833333  C 30.868652343750004 39.24848090277777  30.192626953125 38.93326822916667  29.678466796875 38.6630859375  C 29.164306640625 38.39290364583333  28.4501953125 38.00564236111111  27.5361328125 37.50130208333333  C 26.6220703125 36.99696180555556  26.05078125 36.67274305555556  25.822265625 36.52864583333333  C 23.6513671875 36.52864583333333  21.80419921875 37.0419921875  20.28076171875 38.06868489583333  C 18.757324218750004 39.09537760416667  17.605224609375 40.50032552083333  16.824462890625 42.28352864583334  C 16.043701171875004 44.06673177083334  15.48193359375 45.921983506944436  15.13916015625 47.84928385416666  C 14.79638671875 49.776584201388886  14.625 51.89301215277777  14.625 54.19856770833334  C 14.625 56.504123263888886  15.329589843750002 58.42241753472221  16.73876953125 59.95345052083334  C 18.14794921875 61.484483506944436  19.880859375 62.25  21.9375 62  L 51.1875 62  C 53.244140625 62.25  54.97705078125 61.484483506944436  56.38623046875 59.95345052083334  Z " stroke-width="0" stroke-dasharray="0" stroke="rgba(255, 255, 255, 0)" fill="none" transform="matrix(1 0 0 1 13 2357 )" class="stroke" mask="url(#Clip1)" />
    <path d="M 45.731689453125 34.7724609375  C 48.26440429687501 32.37684461805555  49.53076171875001 29.485894097222218  49.53076171875 26.099609375  C 49.53076171875001 22.713324652777775  48.26440429687501 19.822374131944443  45.731689453125 17.4267578125  C 43.19897460937501 15.031141493055546  40.14257812500001 13.83333333333333  36.5625 13.83333333333333  C 32.982421875 13.83333333333333  29.926025390625004 15.031141493055546  27.393310546875 17.4267578125  C 24.860595703125 19.822374131944443  23.59423828125 22.713324652777775  23.59423828125 26.099609375  C 23.59423828125 29.485894097222218  24.860595703125 32.37684461805555  27.393310546875 34.7724609375  C 29.926025390625004 37.16807725694444  32.982421875 38.36588541666667  36.5625 38.36588541666667  C 40.14257812500001 38.36588541666667  43.19897460937501 37.16807725694444  45.731689453125 34.7724609375  Z " stroke-width="0" stroke-dasharray="0" stroke="rgba(255, 255, 255, 0)" fill="none" transform="matrix(1 0 0 1 13 2357 )" class="stroke" mask="url(#Clip1)" />
    <path d="M 101.86083984375 54.84700520833334  C 102.20361328125 54.52278645833334  102.375 54.108506944444436  102.375 53.60416666666666  L 102.375 50.14583333333334  C 102.375 49.64149305555555  102.20361328125 49.22721354166666  101.86083984375 48.90299479166666  C 101.51806640625 48.57877604166666  101.08007812500001 48.41666666666666  100.546875 48  L 67.640625 48  C 67.107421875 48.41666666666666  66.66943359375 48.57877604166666  66.32666015625 48.90299479166666  C 65.98388671875 49.22721354166666  65.8125 49.64149305555555  65.8125 50.14583333333334  L 65.8125 53.60416666666666  C 65.8125 54.108506944444436  65.98388671875 54.52278645833334  66.32666015625 54.84700520833334  C 66.66943359375 55.17122395833334  67.107421875 55.33333333333334  67.640625 55  L 100.546875 55  C 101.08007812500001 55.33333333333334  101.51806640625 55.17122395833334  101.86083984375 54.84700520833334  Z " stroke-width="0" stroke-dasharray="0" stroke="rgba(255, 255, 255, 0)" fill="none" transform="matrix(1 0 0 1 13 2357 )" class="stroke" mask="url(#Clip1)" />
    <path d="M 101.775146484375 40.9326171875  C 102.175048828125 40.55436197916667  102.375 40.09505208333333  102.375 39.5546875  L 102.375 36.52864583333333  C 102.375 35.98828125  102.175048828125 35.52897135416667  101.775146484375 35.15071614583333  C 101.375244140625 34.7724609375  100.8896484375 34.58333333333333  100.318359375 35  L 67.869140625 35  C 67.2978515625 34.58333333333333  66.812255859375 34.7724609375  66.412353515625 35.15071614583333  C 66.012451171875 35.52897135416667  65.8125 35.98828125  65.8125 36.52864583333333  L 65.8125 39.5546875  C 65.8125 40.09505208333333  66.012451171875 40.55436197916667  66.412353515625 40.9326171875  C 66.812255859375 41.31087239583333  67.2978515625 41.5  67.869140625 41  L 100.318359375 41  C 100.8896484375 41.5  101.375244140625 41.31087239583333  101.775146484375 40.9326171875  Z " stroke-width="0" stroke-dasharray="0" stroke="rgba(255, 255, 255, 0)" fill="none" transform="matrix(1 0 0 1 13 2357 )" class="stroke" mask="url(#Clip1)" />
    <path d="M 101.86083984375 27.18033854166667  C 102.20361328125 26.85611979166667  102.375 26.441840277777775  102.375 25.9375  L 102.375 22.47916666666667  C 102.375 21.97482638888888  102.20361328125 21.560546875  101.86083984375 21.236328125  C 101.51806640625 20.912109375  101.08007812500001 20.75  100.546875 21  L 67.640625 21  C 67.107421875 20.75  66.66943359375 20.912109375  66.32666015625 21.236328125  C 65.98388671875 21.560546875  65.8125 21.97482638888888  65.8125 22.47916666666667  L 65.8125 25.9375  C 65.8125 26.441840277777775  65.98388671875 26.85611979166667  66.32666015625 27.18033854166667  C 66.66943359375 27.50455729166667  67.107421875 27.66666666666667  67.640625 28  L 100.546875 28  C 101.08007812500001 27.66666666666667  101.51806640625 27.50455729166667  101.86083984375 27.18033854166667  Z " stroke-width="0" stroke-dasharray="0" stroke="rgba(255, 255, 255, 0)" fill="none" transform="matrix(1 0 0 1 13 2357 )" class="stroke" mask="url(#Clip1)" />
    <path d="M 114.31494140625 2.5397135416666696  C 116.10498046875001 4.232855902777773  117 6.26822916666667  117 8.64583333333333  L 117 74.35416666666667  C 117 76.73177083333333  116.10498046875001 78.76714409722223  114.31494140625 80.46028645833333  C 112.52490234375 82.15342881944444  110.373046875 83  107.859375 83  L 87.75 83  L 87.75 77.8125  C 87.75 77.30815972222223  87.57861328125 76.89388020833333  87.23583984375 76.56966145833333  C 86.89306640625 76.24544270833333  86.45507812500001 76.08333333333333  85.921875 76.08333333333333  L 82.265625 76.08333333333333  C 81.732421875 76.08333333333333  81.29443359375 76.24544270833333  80.95166015625 76.56966145833333  C 80.60888671875 76.89388020833333  80.4375 77.30815972222223  80.4375 77.8125  L 80.4375 83  L 36.5625 83  L 36.5625 77.8125  C 36.5625 77.30815972222223  36.39111328125 76.89388020833333  36.04833984375 76.56966145833333  C 35.70556640625 76.24544270833333  35.267578125 76.08333333333333  34.734375 76.08333333333333  L 31.078125 76.08333333333333  C 30.544921875000004 76.08333333333333  30.10693359375 76.24544270833333  29.76416015625 76.56966145833333  C 29.42138671875 76.89388020833333  29.25 77.30815972222223  29.25 77.8125  L 29.25 83  L 9.140625 83  C 6.626953125 83  4.475097656250001 82.15342881944444  2.68505859375 80.46028645833333  C 0.89501953125 78.76714409722223  0 76.73177083333333  0 74.35416666666667  L 0 8.64583333333333  C 0 6.26822916666667  0.89501953125 4.232855902777773  2.68505859375 2.5397135416666696  C 4.475097656250001 0.8465711805555474  6.626953125 0  9.140625 0  L 107.859375 0  C 110.373046875 0  112.52490234375 0.8465711805555474  114.31494140625 2.5397135416666696  Z " stroke-width="0" stroke-dasharray="0" stroke="rgba(255, 255, 255, 0)" fill="none" transform="matrix(1 0 0 1 13 2357 )" class="stroke" mask="url(#Clip1)" />
  </g>
</svg>