<?xml version="1.0" encoding="utf-8"?>
<svg version="1.1" xmlns:xlink="http://www.w3.org/1999/xlink" width="98px" height="64px" xmlns="http://www.w3.org/2000/svg">
  <defs>
    <pattern id="BGPattern" patternUnits="userSpaceOnUse" alignment="0 0" imageRepeat="None" />
    <mask fill="white" id="Clip2">
      <path d="M 40.04644097222222 19.916666666666664  C 41.393373842592595 15.527777777777771  43.91001157407408 11.847222222222221  47.596354166666664 8.875  C 43.96672453703704 6.513888888888886  39.982638888888886 5.333333333333336  35.64409722222222 5.333333333333336  C 32.723379629629626 5.333333333333336  29.923177083333336 5.895833333333336  27.243489583333336 7.020833333333336  C 24.563802083333336 8.145833333333336  22.259837962962965 9.652777777777771  20.331597222222225 11.541666666666664  C 18.40335648148148 13.43055555555555  16.86501736111111 15.68055555555555  15.716579861111112 18.291666666666664  C 14.568142361111112 20.90277777777777  13.993923611111112 23.638888888888886  13.993923611111112 26.5  C 13.993923611111112 29.388888888888886  14.568142361111112 32.138888888888886  15.716579861111112 34.75  C 16.86501736111111 37.361111111111114  18.40335648148148 39.6111111111111  20.331597222222225 41.5  C 22.259837962962965 43.388888888888886  24.556712962962965 44.89583333333333  27.222222222222225 46.02083333333333  C 29.88773148148148 47.14583333333333  32.69502314814815 47.70833333333333  35.64409722222222 47.70833333333333  C 39.982638888888886 47.70833333333333  43.96672453703704 46.52777777777777  47.596354166666664 44.16666666666667  C 43.881655092592595 41.19444444444444  41.35792824074074 37.50694444444444  40.025173611111114 33.10416666666667  C 38.69241898148148 28.701388888888886  38.69950810185186 24.30555555555555  40.04644097222222 19.916666666666664  Z M 56.31597222222222 20.270833333333336  C 55.01157407407408 16.09027777777777  52.57291666666667 12.625  49 9.875  C 45.427083333333336 12.625  42.98842592592593 16.09027777777777  41.68402777777778 20.270833333333336  C 40.379629629629626 24.451388888888886  40.37254050925927 28.624999999999993  41.662760416666664 32.79166666666667  C 42.952980324074076 36.95833333333333  45.39872685185186 40.41666666666667  49 43.16666666666667  C 52.60127314814815 40.41666666666667  55.04701967592593 36.95833333333333  56.33723958333333 32.79166666666667  C 57.627459490740755 28.624999999999993  57.620370370370374 24.451388888888886  56.31597222222222 20.270833333333336  Z M 62.35590277777778 5.333333333333336  C 58.01736111111111 5.333333333333336  54.03327546296296 6.513888888888886  50.40364583333333 8.875  C 54.08998842592593 11.847222222222221  56.60662615740741 15.534722222222221  57.95355902777778 19.9375  C 59.30049189814815 24.34027777777777  59.307581018518526 28.74305555555555  57.97482638888889 33.14583333333333  C 56.64207175925926 37.548611111111114  54.11834490740741 41.222222222222214  50.40364583333333 44.16666666666667  C 54.03327546296296 46.52777777777777  58.01736111111111 47.70833333333333  62.35590277777778 47.70833333333333  C 65.30497685185186 47.70833333333333  68.11226851851853 47.14583333333333  70.77777777777777 46.02083333333333  C 73.44328703703705 44.89583333333333  75.74016203703705 43.388888888888886  77.66840277777777 41.5  C 79.59664351851853 39.6111111111111  81.1349826388889 37.361111111111114  82.2834201388889 34.75  C 83.4318576388889 32.138888888888886  84.0060763888889 29.388888888888886  84.0060763888889 26.5  C 84.0060763888889 23.638888888888886  83.4318576388889 20.90277777777777  82.2834201388889 18.291666666666664  C 81.1349826388889 15.68055555555555  79.59664351851853 13.43055555555555  77.66840277777777 11.541666666666664  C 75.74016203703705 9.652777777777771  73.43619791666669 8.145833333333336  70.75651041666667 7.020833333333336  C 68.07682291666669 5.895833333333336  65.27662037037038 5.333333333333336  62.35590277777778 5.333333333333336  Z M 81.921875 39.66666666666667  L 81.921875 38.95833333333333  L 82.21961805555556 38.95833333333333  L 82.21961805555556 38.83333333333333  L 81.49652777777777 38.83333333333333  L 81.49652777777777 38.95833333333333  L 81.79427083333333 38.95833333333333  L 81.79427083333333 39.66666666666667  L 81.921875 39.66666666666667  Z M 83.15538194444444 39.04166666666667  L 83.15538194444444 39.66666666666667  L 83.32552083333333 39.66666666666667  L 83.32552083333333 38.83333333333333  L 83.11284722222223 38.83333333333333  L 82.8576388888889 39.375  L 82.60243055555556 38.83333333333333  L 82.38975694444444 38.83333333333333  L 82.38975694444444 39.66666666666667  L 82.5173611111111 39.66666666666667  L 82.5173611111111 39.04166666666667  L 82.77256944444444 39.58333333333333  L 82.94270833333333 39.58333333333333  L 83.15538194444444 39.04166666666667  Z M 82.81510416666667 57.958333333333336  L 82.81510416666667 58  L 82.81510416666667 58.083333333333336  L 82.73003472222223 58.083333333333336  L 82.60243055555556 58.083333333333336  L 82.60243055555556 57.958333333333336  L 82.73003472222223 57.958333333333336  L 82.81510416666667 57.958333333333336  Z M 82.64496527777777 58.166666666666664  L 82.81510416666667 58.375  L 82.94270833333333 58.375  L 82.77256944444444 58.166666666666664  L 82.8576388888889 58.166666666666664  L 82.9001736111111 58.125  C 82.92853009259261 58.09722222222222  82.94270833333334 58.05555555555555  82.94270833333333 58  C 82.94270833333334 57.94444444444445  82.92853009259261 57.90277777777778  82.9001736111111 57.875  L 82.8576388888889 57.833333333333336  L 82.73003472222223 57.833333333333336  L 82.4748263888889 57.833333333333336  L 82.4748263888889 58.375  L 82.60243055555556 58.375  L 82.60243055555556 58.166666666666664  L 82.64496527777777 58.166666666666664  Z M 29.604166666666664 56.833333333333336  C 29.292245370370377 56.5  29.136284722222225 56.06944444444445  29.136284722222225 55.541666666666664  C 29.136284722222225 55.013888888888886  29.292245370370377 54.583333333333336  29.604166666666664 54.25  C 29.916087962962965 53.916666666666664  30.341435185185187 53.75  30.880208333333336 53.75  C 31.390625 53.75  31.80179398148148 53.923611111111114  32.11371527777778 54.270833333333336  C 32.425636574074076 54.61805555555555  32.58159722222222 55.041666666666664  32.58159722222222 55.541666666666664  C 32.58159722222222 56.06944444444445  32.425636574074076 56.5  32.11371527777778 56.833333333333336  C 31.80179398148148 57.166666666666664  31.390625 57.333333333333336  30.880208333333336 57.333333333333336  C 30.341435185185187 57.333333333333336  29.916087962962965 57.166666666666664  29.604166666666664 56.833333333333336  Z M 47.76649305555555 55.041666666666664  C 47.90827546296297 54.15277777777778  48.404513888888886 53.708333333333336  49.25520833333333 53.708333333333336  C 50.10590277777778 53.708333333333336  50.6021412037037 54.15277777777778  50.74392361111111 55.041666666666664  L 47.76649305555555 55.041666666666664  Z M 64.8654513888889 56.833333333333336  C 64.5535300925926 56.5  64.39756944444444 56.06944444444445  64.39756944444444 55.541666666666664  C 64.39756944444444 55.013888888888886  64.5535300925926 54.583333333333336  64.8654513888889 54.25  C 65.17737268518518 53.916666666666664  65.58854166666667 53.75  66.09895833333333 53.75  C 66.60937500000001 53.75  67.02763310185186 53.923611111111114  67.3537326388889 54.270833333333336  C 67.67983217592592 54.61805555555555  67.84288194444444 55.041666666666664  67.84288194444444 55.541666666666664  C 67.84288194444444 56.06944444444445  67.6869212962963 56.5  67.375 56.833333333333336  C 67.06307870370371 57.166666666666664  66.63773148148148 57.333333333333336  66.09895833333333 57.333333333333336  C 65.58854166666667 57.333333333333336  65.17737268518518 57.166666666666664  64.8654513888889 56.833333333333336  Z M 76.45616319444444 56.8125  C 76.1300636574074 56.46527777777778  75.9670138888889 56.041666666666664  75.9670138888889 55.541666666666664  C 75.9670138888889 55.041666666666664  76.1300636574074 54.61805555555555  76.45616319444444 54.270833333333336  C 76.7822627314815 53.923611111111114  77.20052083333334 53.75  77.7109375 53.75  C 78.22135416666669 53.75  78.63961226851853 53.923611111111114  78.96571180555556 54.270833333333336  C 79.2918113425926 54.61805555555555  79.4548611111111 55.041666666666664  79.4548611111111 55.541666666666664  C 79.4548611111111 56.06944444444445  79.2918113425926 56.5  78.96571180555556 56.833333333333336  C 78.63961226851853 57.166666666666664  78.22135416666669 57.333333333333336  77.7109375 57.333333333333336  C 77.20052083333334 57.333333333333336  76.7822627314815 57.15972222222222  76.45616319444444 56.8125  Z M 82.8576388888889 58.5  C 82.8292824074074 58.52777777777778  82.77256944444446 58.541666666666664  82.6875 58.541666666666664  C 82.63078703703704 58.541666666666664  82.57407407407408 58.52777777777778  82.5173611111111 58.5  C 82.48900462962963 58.5  82.4464699074074 58.47222222222222  82.38975694444444 58.416666666666664  C 82.3330439814815 58.361111111111114  82.30468750000001 58.31944444444445  82.3046875 58.291666666666664  C 82.27633101851853 58.236111111111114  82.26215277777777 58.18055555555555  82.26215277777777 58.125  C 82.26215277777777 58.041666666666664  82.27633101851853 57.986111111111114  82.3046875 57.958333333333336  C 82.30468750000001 57.90277777777778  82.3330439814815 57.84722222222222  82.38975694444444 57.791666666666664  L 82.43229166666667 57.75  C 82.48900462962963 57.75  82.5173611111111 57.736111111111114  82.5173611111111 57.708333333333336  C 82.57407407407408 57.68055555555555  82.63078703703704 57.666666666666664  82.6875 57.666666666666664  C 82.77256944444446 57.666666666666664  82.8292824074074 57.68055555555555  82.8576388888889 57.708333333333336  L 83.02777777777777 57.791666666666664  L 83.11284722222223 57.958333333333336  L 83.11284722222223 58  C 83.14120370370371 58.05555555555555  83.15538194444444 58.09722222222222  83.15538194444444 58.125  L 83.11284722222223 58.166666666666664  L 83.11284722222223 58.291666666666664  C 83.11284722222223 58.291666666666664  83.09866898148148 58.30555555555555  83.0703125 58.333333333333336  L 83.02777777777777 58.416666666666664  C 82.97106481481482 58.47222222222222  82.91435185185186 58.5  82.8576388888889 58.5  Z M 25.47829861111111 55.25  L 25.47829861111111 58.375  L 26.754340277777775 58.375  L 26.754340277777775 54.833333333333336  C 26.754340277777775 54.166666666666664  26.54875578703704 53.63194444444445  26.137586805555554 53.229166666666664  C 25.726417824074076 52.826388888888886  25.166377314814817 52.611111111111114  24.457465277777775 52.583333333333336  C 23.550057870370374 52.583333333333336  22.883680555555557 52.916666666666664  22.458333333333332 53.583333333333336  C 22.061342592592595 52.916666666666664  21.42332175925926 52.583333333333336  20.544270833333332 52.583333333333336  C 19.86371527777778 52.583333333333336  19.31076388888889 52.861111111111114  18.885416666666668 53.416666666666664  L 18.885416666666668 52.75  L 17.609375 52.75  L 17.609375 58.375  L 18.885416666666668 58.375  L 18.885416666666668 55.25  C 18.88541666666667 54.25  19.353298611111114 53.75  20.2890625 53.75  C 21.139756944444446 53.75  21.56510416666667 54.25  21.565104166666668 55.25  L 21.565104166666668 58.375  L 22.79861111111111 58.375  L 22.79861111111111 55.25  C 22.79861111111111 54.25  23.266493055555557 53.75  24.202256944444443 53.75  C 25.05295138888889 53.75  25.47829861111111 54.25  25.47829861111111 55.25  Z M 32.5390625 57.666666666666664  L 32.5390625 58.375  L 33.77256944444445 58.375  L 33.77256944444445 55.541666666666664  L 33.77256944444445 52.75  L 32.5390625 52.75  L 32.5390625 53.416666666666664  C 32.05700231481482 52.861111111111114  31.447337962962965 52.583333333333336  30.710069444444446 52.583333333333336  C 29.88773148148148 52.583333333333336  29.20717592592593 52.861111111111114  28.668402777777775 53.416666666666664  C 28.12962962962963 53.97222222222222  27.860243055555554 54.68055555555555  27.860243055555554 55.541666666666664  C 27.860243055555554 56.40277777777778  28.12962962962963 57.111111111111114  28.668402777777775 57.666666666666664  C 29.20717592592593 58.22222222222222  29.88773148148148 58.5  30.710069444444446 58.5  C 31.50405092592593 58.5  32.11371527777778 58.22222222222222  32.5390625 57.666666666666664  Z M 39.408420138888886 58  C 39.876302083333336 57.666666666666664  40.11024305555555 57.22222222222222  40.11024305555555 56.666666666666664  C 40.11024305555555 55.72222222222222  39.44386574074074 55.166666666666664  38.111111111111114 55  L 37.515625 54.916666666666664  C 36.86342592592593 54.80555555555555  36.537326388888886 54.611111111111114  36.537326388888886 54.333333333333336  C 36.537326388888886 53.916666666666664  36.89178240740741 53.708333333333336  37.60069444444445 53.708333333333336  C 38.25289351851852 53.708333333333336  38.862557870370374 53.861111111111114  39.4296875 54.166666666666664  L 39.940104166666664 53.166666666666664  C 39.316261574074076 52.77777777777778  38.536458333333336 52.583333333333336  37.60069444444445 52.583333333333336  C 36.86342592592593 52.583333333333336  36.28211805555556 52.75  35.856770833333336 53.083333333333336  C 35.431423611111114 53.416666666666664  35.21875000000001 53.861111111111114  35.21875 54.416666666666664  C 35.21875000000001 55.333333333333336  35.88512731481482 55.875  37.21788194444445 56.041666666666664  L 37.770833333333336 56.125  C 38.45138888888889 56.236111111111114  38.79166666666667 56.43055555555555  38.791666666666664 56.708333333333336  C 38.79166666666667 57.18055555555555  38.3521412037037 57.416666666666664  37.47309027777778 57.416666666666664  C 36.76417824074074 57.416666666666664  36.12615740740741 57.22222222222222  35.55902777777778 56.833333333333336  L 35.006076388888886 57.791666666666664  C 35.71498842592593 58.263888888888886  36.537326388888886 58.5  37.47309027777778 58.5  C 38.29542824074074 58.5  38.94053819444445 58.333333333333336  39.408420138888886 58  Z M 44.10850694444445 58.5  C 44.70399305555555 58.5  45.21440972222222 58.361111111111114  45.63975694444445 58.083333333333336  L 45.299479166666664 57.041666666666664  C 44.93084490740741 57.236111111111114  44.56221064814815 57.333333333333336  44.193576388888886 57.333333333333336  C 43.65480324074075 57.333333333333336  43.38541666666667 57.02777777777778  43.385416666666664 56.416666666666664  L 43.385416666666664 53.875  L 45.427083333333336 53.875  L 45.427083333333336 52.75  L 43.385416666666664 52.75  L 43.385416666666664 51.041666666666664  L 42.109375 51.041666666666664  L 42.109375 52.75  L 40.91840277777778 52.75  L 40.91840277777778 53.875  L 42.109375 53.875  L 42.109375 56.416666666666664  C 42.10937500000001 57.80555555555555  42.77575231481482 58.5  44.10850694444445 58.5  Z M 51.25434027777778 53.395833333333336  C 50.74392361111111 52.854166666666664  50.09172453703704 52.583333333333336  49.29774305555555 52.583333333333336  C 48.475405092592595 52.583333333333336  47.79484953703704 52.861111111111114  47.256076388888886 53.416666666666664  C 46.71730324074075 53.97222222222222  46.447916666666664 54.68055555555555  46.447916666666664 55.541666666666664  C 46.447916666666664 56.43055555555555  46.724392361111114 57.145833333333336  47.27734375 57.6875  C 47.830295138888886 58.229166666666664  48.53211805555555 58.5  49.3828125 58.5  C 50.31857638888889 58.5  51.09837962962963 58.236111111111114  51.72222222222222 57.708333333333336  L 51.12673611111111 56.791666666666664  C 50.61631944444445 57.208333333333336  50.06336805555555 57.416666666666664  49.46788194444445 57.416666666666664  C 48.50376157407408 57.416666666666664  47.9224537037037 56.958333333333336  47.723958333333336 56.041666666666664  L 52.01996527777778 56.041666666666664  L 52.01996527777778 55.541666666666664  C 52.01996527777778 54.65277777777778  51.76475694444445 53.9375  51.25434027777778 53.395833333333336  Z M 56.95399305555555 52.75  C 56.69878472222222 52.638888888888886  56.40104166666667 52.583333333333336  56.06076388888889 52.583333333333336  C 55.408564814814824 52.583333333333336  54.91232638888889 52.861111111111114  54.57204861111111 53.416666666666664  L 54.57204861111111 52.75  L 53.29600694444445 52.75  L 53.29600694444445 58.375  L 54.57204861111111 58.375  L 54.57204861111111 55.208333333333336  C 54.57204861111111 54.236111111111114  54.9832175925926 53.75  55.80555555555555 53.75  C 56.089120370370374 53.75  56.3443287037037 53.80555555555555  56.57118055555555 53.916666666666664  L 56.95399305555555 52.75  Z M 58.16623263888889 53.416666666666664  C 57.61328125 53.97222222222222  57.33680555555555 54.68055555555555  57.33680555555555 55.541666666666664  C 57.33680555555555 56.40277777777778  57.61328125 57.111111111111114  58.16623263888889 57.666666666666664  C 58.71918402777778 58.22222222222222  59.46354166666667 58.5  60.39930555555555 58.5  C 61.221643518518526 58.5  61.90219907407408 58.27777777777778  62.44097222222222 57.833333333333336  L 61.84548611111111 56.833333333333336  C 61.33506944444445 57.19444444444445  60.838831018518526 57.361111111111114  60.35677083333333 57.333333333333336  C 59.84635416666667 57.333333333333336  59.428096064814824 57.166666666666664  59.10199652777778 56.833333333333336  C 58.775896990740755 56.5  58.61284722222222 56.06944444444445  58.61284722222222 55.541666666666664  C 58.61284722222222 55.013888888888886  58.775896990740755 54.583333333333336  59.10199652777778 54.25  C 59.428096064814824 53.916666666666664  59.84635416666667 53.75  60.35677083333333 53.75  C 60.89554398148148 53.75  61.39178240740741 53.916666666666664  61.84548611111111 54.25  L 62.44097222222222 53.25  C 61.8738425925926 52.80555555555555  61.19328703703704 52.583333333333336  60.39930555555555 52.583333333333336  C 59.46354166666667 52.583333333333336  58.71918402777778 52.861111111111114  58.16623263888889 53.416666666666664  Z M 67.7578125 57.666666666666664  L 67.7578125 58.375  L 69.03385416666667 58.375  L 69.03385416666667 55.541666666666664  L 69.03385416666667 52.75  L 67.7578125 52.75  L 67.7578125 53.416666666666664  C 67.33246527777779 52.861111111111114  66.73697916666669 52.583333333333336  65.97135416666667 52.583333333333336  C 65.14901620370371 52.583333333333336  64.46137152777777 52.861111111111114  63.90842013888889 53.416666666666664  C 63.35546875 53.97222222222222  63.07899305555555 54.68055555555555  63.07899305555555 55.541666666666664  C 63.07899305555555 56.40277777777778  63.35546875 57.111111111111114  63.90842013888889 57.666666666666664  C 64.46137152777777 58.22222222222222  65.14901620370371 58.5  65.97135416666667 58.5  C 66.76533564814815 58.5  67.36082175925925 58.22222222222222  67.7578125 57.666666666666664  Z M 74.30815972222223 52.75  C 74.08130787037038 52.638888888888886  73.78356481481482 52.583333333333336  73.41493055555556 52.583333333333336  C 72.76273148148148 52.583333333333336  72.26649305555556 52.861111111111114  71.92621527777777 53.416666666666664  L 71.92621527777777 52.75  L 70.69270833333333 52.75  L 70.69270833333333 58.375  L 71.92621527777777 58.375  L 71.92621527777777 55.208333333333336  C 71.92621527777777 54.236111111111114  72.33738425925925 53.75  73.15972222222223 53.75  C 73.44328703703704 53.75  73.69849537037038 53.80555555555555  73.92534722222223 53.916666666666664  L 74.30815972222223 52.75  Z M 79.36979166666667 57.666666666666664  L 79.36979166666667 58.375  L 80.6032986111111 58.375  L 80.6032986111111 55.541666666666664  L 80.6032986111111 50.458333333333336  L 79.36979166666667 50.458333333333336  L 79.36979166666667 53.416666666666664  C 78.94444444444446 52.861111111111114  78.33478009259261 52.583333333333336  77.5407986111111 52.583333333333336  C 76.74681712962963 52.583333333333336  76.07335069444444 52.86805555555555  75.52039930555556 53.4375  C 74.96744791666667 54.00694444444445  74.69097222222223 54.708333333333336  74.69097222222223 55.541666666666664  C 74.69097222222223 56.375  74.96744791666667 57.076388888888886  75.52039930555556 57.645833333333336  C 76.07335069444444 58.21527777777778  76.74681712962963 58.5  77.5407986111111 58.5  C 78.36313657407408 58.5  78.97280092592592 58.22222222222222  79.36979166666667 57.666666666666664  Z M 82.81510416666667 57.5625  C 82.75839120370371 57.548611111111114  82.71585648148148 57.541666666666664  82.6875 57.541666666666664  L 82.60243055555556 57.583333333333336  L 82.4748263888889 57.583333333333336  C 82.41811342592592 57.611111111111114  82.36140046296296 57.65277777777778  82.3046875 57.708333333333336  C 82.21961805555556 57.736111111111114  82.17708333333334 57.791666666666664  82.17708333333333 57.875  C 82.14872685185186 57.93055555555555  82.1345486111111 58.013888888888886  82.1345486111111 58.125  C 82.1345486111111 58.208333333333336  82.14872685185186 58.27777777777778  82.17708333333333 58.333333333333336  C 82.17708333333334 58.388888888888886  82.21961805555556 58.44444444444445  82.3046875 58.5  C 82.36140046296296 58.55555555555555  82.41811342592592 58.59722222222222  82.4748263888889 58.625  C 82.53153935185186 58.65277777777778  82.60243055555556 58.666666666666664  82.6875 58.666666666666664  C 82.80092592592592 58.666666666666664  82.88599537037038 58.65277777777778  82.94270833333333 58.625  C 82.94270833333334 58.59722222222222  82.97106481481482 58.56944444444445  83.02777777777777 58.541666666666664  L 83.11284722222223 58.5  C 83.14120370370371 58.47222222222222  83.18373842592592 58.416666666666664  83.2404513888889 58.333333333333336  C 83.26880787037038 58.27777777777778  83.2829861111111 58.208333333333336  83.2829861111111 58.125  C 83.2829861111111 58.013888888888886  83.26880787037038 57.93055555555555  83.2404513888889 57.875  C 83.2120949074074 57.84722222222222  83.16956018518519 57.791666666666664  83.11284722222223 57.708333333333336  C 83.11284722222223 57.68055555555555  83.08449074074075 57.65277777777778  83.02777777777777 57.625  L 82.94270833333333 57.583333333333336  C 82.91435185185186 57.583333333333336  82.87181712962963 57.576388888888886  82.81510416666667 57.5625  Z M 96.38368055555556 1.5833333333333357  C 97.46122685185186 2.6388888888888857  98 3.8888888888888857  98 5.333333333333336  L 98 58.666666666666664  C 98 60.111111111111114  97.46122685185186 61.361111111111114  96.38368055555556 62.416666666666664  C 95.30613425925927 63.47222222222222  94.03009259259261 64  92.55555555555556 64  L 5.444444444444444 64  C 3.969907407407408 64  2.693865740740741 63.47222222222222  1.6163194444444444 62.416666666666664  C 0.5387731481481481 61.361111111111114  0 60.111111111111114  0 58.666666666666664  L 0 5.333333333333336  C 0 3.8888888888888857  0.5387731481481481 2.6388888888888857  1.6163194444444444 1.5833333333333357  C 2.693865740740741 0.5277777777777715  3.969907407407408 0  5.444444444444444 0  L 92.55555555555556 0  C 94.03009259259261 0  95.30613425925927 0.5277777777777715  96.38368055555556 1.5833333333333357  Z " fill-rule="evenodd" />
    </mask>
  </defs>
  <g transform="matrix(1 0 0 1 -796 -2325 )">
    <path d="M 40.04644097222222 19.916666666666664  C 41.393373842592595 15.527777777777771  43.91001157407408 11.847222222222221  47.596354166666664 8.875  C 43.96672453703704 6.513888888888886  39.982638888888886 5.333333333333336  35.64409722222222 5.333333333333336  C 32.723379629629626 5.333333333333336  29.923177083333336 5.895833333333336  27.243489583333336 7.020833333333336  C 24.563802083333336 8.145833333333336  22.259837962962965 9.652777777777771  20.331597222222225 11.541666666666664  C 18.40335648148148 13.43055555555555  16.86501736111111 15.68055555555555  15.716579861111112 18.291666666666664  C 14.568142361111112 20.90277777777777  13.993923611111112 23.638888888888886  13.993923611111112 26.5  C 13.993923611111112 29.388888888888886  14.568142361111112 32.138888888888886  15.716579861111112 34.75  C 16.86501736111111 37.361111111111114  18.40335648148148 39.6111111111111  20.331597222222225 41.5  C 22.259837962962965 43.388888888888886  24.556712962962965 44.89583333333333  27.222222222222225 46.02083333333333  C 29.88773148148148 47.14583333333333  32.69502314814815 47.70833333333333  35.64409722222222 47.70833333333333  C 39.982638888888886 47.70833333333333  43.96672453703704 46.52777777777777  47.596354166666664 44.16666666666667  C 43.881655092592595 41.19444444444444  41.35792824074074 37.50694444444444  40.025173611111114 33.10416666666667  C 38.69241898148148 28.701388888888886  38.69950810185186 24.30555555555555  40.04644097222222 19.916666666666664  Z M 56.31597222222222 20.270833333333336  C 55.01157407407408 16.09027777777777  52.57291666666667 12.625  49 9.875  C 45.427083333333336 12.625  42.98842592592593 16.09027777777777  41.68402777777778 20.270833333333336  C 40.379629629629626 24.451388888888886  40.37254050925927 28.624999999999993  41.662760416666664 32.79166666666667  C 42.952980324074076 36.95833333333333  45.39872685185186 40.41666666666667  49 43.16666666666667  C 52.60127314814815 40.41666666666667  55.04701967592593 36.95833333333333  56.33723958333333 32.79166666666667  C 57.627459490740755 28.624999999999993  57.620370370370374 24.451388888888886  56.31597222222222 20.270833333333336  Z M 62.35590277777778 5.333333333333336  C 58.01736111111111 5.333333333333336  54.03327546296296 6.513888888888886  50.40364583333333 8.875  C 54.08998842592593 11.847222222222221  56.60662615740741 15.534722222222221  57.95355902777778 19.9375  C 59.30049189814815 24.34027777777777  59.307581018518526 28.74305555555555  57.97482638888889 33.14583333333333  C 56.64207175925926 37.548611111111114  54.11834490740741 41.222222222222214  50.40364583333333 44.16666666666667  C 54.03327546296296 46.52777777777777  58.01736111111111 47.70833333333333  62.35590277777778 47.70833333333333  C 65.30497685185186 47.70833333333333  68.11226851851853 47.14583333333333  70.77777777777777 46.02083333333333  C 73.44328703703705 44.89583333333333  75.74016203703705 43.388888888888886  77.66840277777777 41.5  C 79.59664351851853 39.6111111111111  81.1349826388889 37.361111111111114  82.2834201388889 34.75  C 83.4318576388889 32.138888888888886  84.0060763888889 29.388888888888886  84.0060763888889 26.5  C 84.0060763888889 23.638888888888886  83.4318576388889 20.90277777777777  82.2834201388889 18.291666666666664  C 81.1349826388889 15.68055555555555  79.59664351851853 13.43055555555555  77.66840277777777 11.541666666666664  C 75.74016203703705 9.652777777777771  73.43619791666669 8.145833333333336  70.75651041666667 7.020833333333336  C 68.07682291666669 5.895833333333336  65.27662037037038 5.333333333333336  62.35590277777778 5.333333333333336  Z M 81.921875 39.66666666666667  L 81.921875 38.95833333333333  L 82.21961805555556 38.95833333333333  L 82.21961805555556 38.83333333333333  L 81.49652777777777 38.83333333333333  L 81.49652777777777 38.95833333333333  L 81.79427083333333 38.95833333333333  L 81.79427083333333 39.66666666666667  L 81.921875 39.66666666666667  Z M 83.15538194444444 39.04166666666667  L 83.15538194444444 39.66666666666667  L 83.32552083333333 39.66666666666667  L 83.32552083333333 38.83333333333333  L 83.11284722222223 38.83333333333333  L 82.8576388888889 39.375  L 82.60243055555556 38.83333333333333  L 82.38975694444444 38.83333333333333  L 82.38975694444444 39.66666666666667  L 82.5173611111111 39.66666666666667  L 82.5173611111111 39.04166666666667  L 82.77256944444444 39.58333333333333  L 82.94270833333333 39.58333333333333  L 83.15538194444444 39.04166666666667  Z M 82.81510416666667 57.958333333333336  L 82.81510416666667 58  L 82.81510416666667 58.083333333333336  L 82.73003472222223 58.083333333333336  L 82.60243055555556 58.083333333333336  L 82.60243055555556 57.958333333333336  L 82.73003472222223 57.958333333333336  L 82.81510416666667 57.958333333333336  Z M 82.64496527777777 58.166666666666664  L 82.81510416666667 58.375  L 82.94270833333333 58.375  L 82.77256944444444 58.166666666666664  L 82.8576388888889 58.166666666666664  L 82.9001736111111 58.125  C 82.92853009259261 58.09722222222222  82.94270833333334 58.05555555555555  82.94270833333333 58  C 82.94270833333334 57.94444444444445  82.92853009259261 57.90277777777778  82.9001736111111 57.875  L 82.8576388888889 57.833333333333336  L 82.73003472222223 57.833333333333336  L 82.4748263888889 57.833333333333336  L 82.4748263888889 58.375  L 82.60243055555556 58.375  L 82.60243055555556 58.166666666666664  L 82.64496527777777 58.166666666666664  Z M 29.604166666666664 56.833333333333336  C 29.292245370370377 56.5  29.136284722222225 56.06944444444445  29.136284722222225 55.541666666666664  C 29.136284722222225 55.013888888888886  29.292245370370377 54.583333333333336  29.604166666666664 54.25  C 29.916087962962965 53.916666666666664  30.341435185185187 53.75  30.880208333333336 53.75  C 31.390625 53.75  31.80179398148148 53.923611111111114  32.11371527777778 54.270833333333336  C 32.425636574074076 54.61805555555555  32.58159722222222 55.041666666666664  32.58159722222222 55.541666666666664  C 32.58159722222222 56.06944444444445  32.425636574074076 56.5  32.11371527777778 56.833333333333336  C 31.80179398148148 57.166666666666664  31.390625 57.333333333333336  30.880208333333336 57.333333333333336  C 30.341435185185187 57.333333333333336  29.916087962962965 57.166666666666664  29.604166666666664 56.833333333333336  Z M 47.76649305555555 55.041666666666664  C 47.90827546296297 54.15277777777778  48.404513888888886 53.708333333333336  49.25520833333333 53.708333333333336  C 50.10590277777778 53.708333333333336  50.6021412037037 54.15277777777778  50.74392361111111 55.041666666666664  L 47.76649305555555 55.041666666666664  Z M 64.8654513888889 56.833333333333336  C 64.5535300925926 56.5  64.39756944444444 56.06944444444445  64.39756944444444 55.541666666666664  C 64.39756944444444 55.013888888888886  64.5535300925926 54.583333333333336  64.8654513888889 54.25  C 65.17737268518518 53.916666666666664  65.58854166666667 53.75  66.09895833333333 53.75  C 66.60937500000001 53.75  67.02763310185186 53.923611111111114  67.3537326388889 54.270833333333336  C 67.67983217592592 54.61805555555555  67.84288194444444 55.041666666666664  67.84288194444444 55.541666666666664  C 67.84288194444444 56.06944444444445  67.6869212962963 56.5  67.375 56.833333333333336  C 67.06307870370371 57.166666666666664  66.63773148148148 57.333333333333336  66.09895833333333 57.333333333333336  C 65.58854166666667 57.333333333333336  65.17737268518518 57.166666666666664  64.8654513888889 56.833333333333336  Z M 76.45616319444444 56.8125  C 76.1300636574074 56.46527777777778  75.9670138888889 56.041666666666664  75.9670138888889 55.541666666666664  C 75.9670138888889 55.041666666666664  76.1300636574074 54.61805555555555  76.45616319444444 54.270833333333336  C 76.7822627314815 53.923611111111114  77.20052083333334 53.75  77.7109375 53.75  C 78.22135416666669 53.75  78.63961226851853 53.923611111111114  78.96571180555556 54.270833333333336  C 79.2918113425926 54.61805555555555  79.4548611111111 55.041666666666664  79.4548611111111 55.541666666666664  C 79.4548611111111 56.06944444444445  79.2918113425926 56.5  78.96571180555556 56.833333333333336  C 78.63961226851853 57.166666666666664  78.22135416666669 57.333333333333336  77.7109375 57.333333333333336  C 77.20052083333334 57.333333333333336  76.7822627314815 57.15972222222222  76.45616319444444 56.8125  Z M 82.8576388888889 58.5  C 82.8292824074074 58.52777777777778  82.77256944444446 58.541666666666664  82.6875 58.541666666666664  C 82.63078703703704 58.541666666666664  82.57407407407408 58.52777777777778  82.5173611111111 58.5  C 82.48900462962963 58.5  82.4464699074074 58.47222222222222  82.38975694444444 58.416666666666664  C 82.3330439814815 58.361111111111114  82.30468750000001 58.31944444444445  82.3046875 58.291666666666664  C 82.27633101851853 58.236111111111114  82.26215277777777 58.18055555555555  82.26215277777777 58.125  C 82.26215277777777 58.041666666666664  82.27633101851853 57.986111111111114  82.3046875 57.958333333333336  C 82.30468750000001 57.90277777777778  82.3330439814815 57.84722222222222  82.38975694444444 57.791666666666664  L 82.43229166666667 57.75  C 82.48900462962963 57.75  82.5173611111111 57.736111111111114  82.5173611111111 57.708333333333336  C 82.57407407407408 57.68055555555555  82.63078703703704 57.666666666666664  82.6875 57.666666666666664  C 82.77256944444446 57.666666666666664  82.8292824074074 57.68055555555555  82.8576388888889 57.708333333333336  L 83.02777777777777 57.791666666666664  L 83.11284722222223 57.958333333333336  L 83.11284722222223 58  C 83.14120370370371 58.05555555555555  83.15538194444444 58.09722222222222  83.15538194444444 58.125  L 83.11284722222223 58.166666666666664  L 83.11284722222223 58.291666666666664  C 83.11284722222223 58.291666666666664  83.09866898148148 58.30555555555555  83.0703125 58.333333333333336  L 83.02777777777777 58.416666666666664  C 82.97106481481482 58.47222222222222  82.91435185185186 58.5  82.8576388888889 58.5  Z M 25.47829861111111 55.25  L 25.47829861111111 58.375  L 26.754340277777775 58.375  L 26.754340277777775 54.833333333333336  C 26.754340277777775 54.166666666666664  26.54875578703704 53.63194444444445  26.137586805555554 53.229166666666664  C 25.726417824074076 52.826388888888886  25.166377314814817 52.611111111111114  24.457465277777775 52.583333333333336  C 23.550057870370374 52.583333333333336  22.883680555555557 52.916666666666664  22.458333333333332 53.583333333333336  C 22.061342592592595 52.916666666666664  21.42332175925926 52.583333333333336  20.544270833333332 52.583333333333336  C 19.86371527777778 52.583333333333336  19.31076388888889 52.861111111111114  18.885416666666668 53.416666666666664  L 18.885416666666668 52.75  L 17.609375 52.75  L 17.609375 58.375  L 18.885416666666668 58.375  L 18.885416666666668 55.25  C 18.88541666666667 54.25  19.353298611111114 53.75  20.2890625 53.75  C 21.139756944444446 53.75  21.56510416666667 54.25  21.565104166666668 55.25  L 21.565104166666668 58.375  L 22.79861111111111 58.375  L 22.79861111111111 55.25  C 22.79861111111111 54.25  23.266493055555557 53.75  24.202256944444443 53.75  C 25.05295138888889 53.75  25.47829861111111 54.25  25.47829861111111 55.25  Z M 32.5390625 57.666666666666664  L 32.5390625 58.375  L 33.77256944444445 58.375  L 33.77256944444445 55.541666666666664  L 33.77256944444445 52.75  L 32.5390625 52.75  L 32.5390625 53.416666666666664  C 32.05700231481482 52.861111111111114  31.447337962962965 52.583333333333336  30.710069444444446 52.583333333333336  C 29.88773148148148 52.583333333333336  29.20717592592593 52.861111111111114  28.668402777777775 53.416666666666664  C 28.12962962962963 53.97222222222222  27.860243055555554 54.68055555555555  27.860243055555554 55.541666666666664  C 27.860243055555554 56.40277777777778  28.12962962962963 57.111111111111114  28.668402777777775 57.666666666666664  C 29.20717592592593 58.22222222222222  29.88773148148148 58.5  30.710069444444446 58.5  C 31.50405092592593 58.5  32.11371527777778 58.22222222222222  32.5390625 57.666666666666664  Z M 39.408420138888886 58  C 39.876302083333336 57.666666666666664  40.11024305555555 57.22222222222222  40.11024305555555 56.666666666666664  C 40.11024305555555 55.72222222222222  39.44386574074074 55.166666666666664  38.111111111111114 55  L 37.515625 54.916666666666664  C 36.86342592592593 54.80555555555555  36.537326388888886 54.611111111111114  36.537326388888886 54.333333333333336  C 36.537326388888886 53.916666666666664  36.89178240740741 53.708333333333336  37.60069444444445 53.708333333333336  C 38.25289351851852 53.708333333333336  38.862557870370374 53.861111111111114  39.4296875 54.166666666666664  L 39.940104166666664 53.166666666666664  C 39.316261574074076 52.77777777777778  38.536458333333336 52.583333333333336  37.60069444444445 52.583333333333336  C 36.86342592592593 52.583333333333336  36.28211805555556 52.75  35.856770833333336 53.083333333333336  C 35.431423611111114 53.416666666666664  35.21875000000001 53.861111111111114  35.21875 54.416666666666664  C 35.21875000000001 55.333333333333336  35.88512731481482 55.875  37.21788194444445 56.041666666666664  L 37.770833333333336 56.125  C 38.45138888888889 56.236111111111114  38.79166666666667 56.43055555555555  38.791666666666664 56.708333333333336  C 38.79166666666667 57.18055555555555  38.3521412037037 57.416666666666664  37.47309027777778 57.416666666666664  C 36.76417824074074 57.416666666666664  36.12615740740741 57.22222222222222  35.55902777777778 56.833333333333336  L 35.006076388888886 57.791666666666664  C 35.71498842592593 58.263888888888886  36.537326388888886 58.5  37.47309027777778 58.5  C 38.29542824074074 58.5  38.94053819444445 58.333333333333336  39.408420138888886 58  Z M 44.10850694444445 58.5  C 44.70399305555555 58.5  45.21440972222222 58.361111111111114  45.63975694444445 58.083333333333336  L 45.299479166666664 57.041666666666664  C 44.93084490740741 57.236111111111114  44.56221064814815 57.333333333333336  44.193576388888886 57.333333333333336  C 43.65480324074075 57.333333333333336  43.38541666666667 57.02777777777778  43.385416666666664 56.416666666666664  L 43.385416666666664 53.875  L 45.427083333333336 53.875  L 45.427083333333336 52.75  L 43.385416666666664 52.75  L 43.385416666666664 51.041666666666664  L 42.109375 51.041666666666664  L 42.109375 52.75  L 40.91840277777778 52.75  L 40.91840277777778 53.875  L 42.109375 53.875  L 42.109375 56.416666666666664  C 42.10937500000001 57.80555555555555  42.77575231481482 58.5  44.10850694444445 58.5  Z M 51.25434027777778 53.395833333333336  C 50.74392361111111 52.854166666666664  50.09172453703704 52.583333333333336  49.29774305555555 52.583333333333336  C 48.475405092592595 52.583333333333336  47.79484953703704 52.861111111111114  47.256076388888886 53.416666666666664  C 46.71730324074075 53.97222222222222  46.447916666666664 54.68055555555555  46.447916666666664 55.541666666666664  C 46.447916666666664 56.43055555555555  46.724392361111114 57.145833333333336  47.27734375 57.6875  C 47.830295138888886 58.229166666666664  48.53211805555555 58.5  49.3828125 58.5  C 50.31857638888889 58.5  51.09837962962963 58.236111111111114  51.72222222222222 57.708333333333336  L 51.12673611111111 56.791666666666664  C 50.61631944444445 57.208333333333336  50.06336805555555 57.416666666666664  49.46788194444445 57.416666666666664  C 48.50376157407408 57.416666666666664  47.9224537037037 56.958333333333336  47.723958333333336 56.041666666666664  L 52.01996527777778 56.041666666666664  L 52.01996527777778 55.541666666666664  C 52.01996527777778 54.65277777777778  51.76475694444445 53.9375  51.25434027777778 53.395833333333336  Z M 56.95399305555555 52.75  C 56.69878472222222 52.638888888888886  56.40104166666667 52.583333333333336  56.06076388888889 52.583333333333336  C 55.408564814814824 52.583333333333336  54.91232638888889 52.861111111111114  54.57204861111111 53.416666666666664  L 54.57204861111111 52.75  L 53.29600694444445 52.75  L 53.29600694444445 58.375  L 54.57204861111111 58.375  L 54.57204861111111 55.208333333333336  C 54.57204861111111 54.236111111111114  54.9832175925926 53.75  55.80555555555555 53.75  C 56.089120370370374 53.75  56.3443287037037 53.80555555555555  56.57118055555555 53.916666666666664  L 56.95399305555555 52.75  Z M 58.16623263888889 53.416666666666664  C 57.61328125 53.97222222222222  57.33680555555555 54.68055555555555  57.33680555555555 55.541666666666664  C 57.33680555555555 56.40277777777778  57.61328125 57.111111111111114  58.16623263888889 57.666666666666664  C 58.71918402777778 58.22222222222222  59.46354166666667 58.5  60.39930555555555 58.5  C 61.221643518518526 58.5  61.90219907407408 58.27777777777778  62.44097222222222 57.833333333333336  L 61.84548611111111 56.833333333333336  C 61.33506944444445 57.19444444444445  60.838831018518526 57.361111111111114  60.35677083333333 57.333333333333336  C 59.84635416666667 57.333333333333336  59.428096064814824 57.166666666666664  59.10199652777778 56.833333333333336  C 58.775896990740755 56.5  58.61284722222222 56.06944444444445  58.61284722222222 55.541666666666664  C 58.61284722222222 55.013888888888886  58.775896990740755 54.583333333333336  59.10199652777778 54.25  C 59.428096064814824 53.916666666666664  59.84635416666667 53.75  60.35677083333333 53.75  C 60.89554398148148 53.75  61.39178240740741 53.916666666666664  61.84548611111111 54.25  L 62.44097222222222 53.25  C 61.8738425925926 52.80555555555555  61.19328703703704 52.583333333333336  60.39930555555555 52.583333333333336  C 59.46354166666667 52.583333333333336  58.71918402777778 52.861111111111114  58.16623263888889 53.416666666666664  Z M 67.7578125 57.666666666666664  L 67.7578125 58.375  L 69.03385416666667 58.375  L 69.03385416666667 55.541666666666664  L 69.03385416666667 52.75  L 67.7578125 52.75  L 67.7578125 53.416666666666664  C 67.33246527777779 52.861111111111114  66.73697916666669 52.583333333333336  65.97135416666667 52.583333333333336  C 65.14901620370371 52.583333333333336  64.46137152777777 52.861111111111114  63.90842013888889 53.416666666666664  C 63.35546875 53.97222222222222  63.07899305555555 54.68055555555555  63.07899305555555 55.541666666666664  C 63.07899305555555 56.40277777777778  63.35546875 57.111111111111114  63.90842013888889 57.666666666666664  C 64.46137152777777 58.22222222222222  65.14901620370371 58.5  65.97135416666667 58.5  C 66.76533564814815 58.5  67.36082175925925 58.22222222222222  67.7578125 57.666666666666664  Z M 74.30815972222223 52.75  C 74.08130787037038 52.638888888888886  73.78356481481482 52.583333333333336  73.41493055555556 52.583333333333336  C 72.76273148148148 52.583333333333336  72.26649305555556 52.861111111111114  71.92621527777777 53.416666666666664  L 71.92621527777777 52.75  L 70.69270833333333 52.75  L 70.69270833333333 58.375  L 71.92621527777777 58.375  L 71.92621527777777 55.208333333333336  C 71.92621527777777 54.236111111111114  72.33738425925925 53.75  73.15972222222223 53.75  C 73.44328703703704 53.75  73.69849537037038 53.80555555555555  73.92534722222223 53.916666666666664  L 74.30815972222223 52.75  Z M 79.36979166666667 57.666666666666664  L 79.36979166666667 58.375  L 80.6032986111111 58.375  L 80.6032986111111 55.541666666666664  L 80.6032986111111 50.458333333333336  L 79.36979166666667 50.458333333333336  L 79.36979166666667 53.416666666666664  C 78.94444444444446 52.861111111111114  78.33478009259261 52.583333333333336  77.5407986111111 52.583333333333336  C 76.74681712962963 52.583333333333336  76.07335069444444 52.86805555555555  75.52039930555556 53.4375  C 74.96744791666667 54.00694444444445  74.69097222222223 54.708333333333336  74.69097222222223 55.541666666666664  C 74.69097222222223 56.375  74.96744791666667 57.076388888888886  75.52039930555556 57.645833333333336  C 76.07335069444444 58.21527777777778  76.74681712962963 58.5  77.5407986111111 58.5  C 78.36313657407408 58.5  78.97280092592592 58.22222222222222  79.36979166666667 57.666666666666664  Z M 82.81510416666667 57.5625  C 82.75839120370371 57.548611111111114  82.71585648148148 57.541666666666664  82.6875 57.541666666666664  L 82.60243055555556 57.583333333333336  L 82.4748263888889 57.583333333333336  C 82.41811342592592 57.611111111111114  82.36140046296296 57.65277777777778  82.3046875 57.708333333333336  C 82.21961805555556 57.736111111111114  82.17708333333334 57.791666666666664  82.17708333333333 57.875  C 82.14872685185186 57.93055555555555  82.1345486111111 58.013888888888886  82.1345486111111 58.125  C 82.1345486111111 58.208333333333336  82.14872685185186 58.27777777777778  82.17708333333333 58.333333333333336  C 82.17708333333334 58.388888888888886  82.21961805555556 58.44444444444445  82.3046875 58.5  C 82.36140046296296 58.55555555555555  82.41811342592592 58.59722222222222  82.4748263888889 58.625  C 82.53153935185186 58.65277777777778  82.60243055555556 58.666666666666664  82.6875 58.666666666666664  C 82.80092592592592 58.666666666666664  82.88599537037038 58.65277777777778  82.94270833333333 58.625  C 82.94270833333334 58.59722222222222  82.97106481481482 58.56944444444445  83.02777777777777 58.541666666666664  L 83.11284722222223 58.5  C 83.14120370370371 58.47222222222222  83.18373842592592 58.416666666666664  83.2404513888889 58.333333333333336  C 83.26880787037038 58.27777777777778  83.2829861111111 58.208333333333336  83.2829861111111 58.125  C 83.2829861111111 58.013888888888886  83.26880787037038 57.93055555555555  83.2404513888889 57.875  C 83.2120949074074 57.84722222222222  83.16956018518519 57.791666666666664  83.11284722222223 57.708333333333336  C 83.11284722222223 57.68055555555555  83.08449074074075 57.65277777777778  83.02777777777777 57.625  L 82.94270833333333 57.583333333333336  C 82.91435185185186 57.583333333333336  82.87181712962963 57.576388888888886  82.81510416666667 57.5625  Z M 96.38368055555556 1.5833333333333357  C 97.46122685185186 2.6388888888888857  98 3.8888888888888857  98 5.333333333333336  L 98 58.666666666666664  C 98 60.111111111111114  97.46122685185186 61.361111111111114  96.38368055555556 62.416666666666664  C 95.30613425925927 63.47222222222222  94.03009259259261 64  92.55555555555556 64  L 5.444444444444444 64  C 3.969907407407408 64  2.693865740740741 63.47222222222222  1.6163194444444444 62.416666666666664  C 0.5387731481481481 61.361111111111114  0 60.111111111111114  0 58.666666666666664  L 0 5.333333333333336  C 0 3.8888888888888857  0.5387731481481481 2.6388888888888857  1.6163194444444444 1.5833333333333357  C 2.693865740740741 0.5277777777777715  3.969907407407408 0  5.444444444444444 0  L 92.55555555555556 0  C 94.03009259259261 0  95.30613425925927 0.5277777777777715  96.38368055555556 1.5833333333333357  Z " fill-rule="nonzero" fill="rgba(255, 255, 255, 0.6901960784313725)" stroke="none" transform="matrix(1 0 0 1 796 2325 )" class="fill" />
    <path d="M 40.04644097222222 19.916666666666664  C 41.393373842592595 15.527777777777771  43.91001157407408 11.847222222222221  47.596354166666664 8.875  C 43.96672453703704 6.513888888888886  39.982638888888886 5.333333333333336  35.64409722222222 5.333333333333336  C 32.723379629629626 5.333333333333336  29.923177083333336 5.895833333333336  27.243489583333336 7.020833333333336  C 24.563802083333336 8.145833333333336  22.259837962962965 9.652777777777771  20.331597222222225 11.541666666666664  C 18.40335648148148 13.43055555555555  16.86501736111111 15.68055555555555  15.716579861111112 18.291666666666664  C 14.568142361111112 20.90277777777777  13.993923611111112 23.638888888888886  13.993923611111112 26.5  C 13.993923611111112 29.388888888888886  14.568142361111112 32.138888888888886  15.716579861111112 34.75  C 16.86501736111111 37.361111111111114  18.40335648148148 39.6111111111111  20.331597222222225 41.5  C 22.259837962962965 43.388888888888886  24.556712962962965 44.89583333333333  27.222222222222225 46.02083333333333  C 29.88773148148148 47.14583333333333  32.69502314814815 47.70833333333333  35.64409722222222 47.70833333333333  C 39.982638888888886 47.70833333333333  43.96672453703704 46.52777777777777  47.596354166666664 44.16666666666667  C 43.881655092592595 41.19444444444444  41.35792824074074 37.50694444444444  40.025173611111114 33.10416666666667  C 38.69241898148148 28.701388888888886  38.69950810185186 24.30555555555555  40.04644097222222 19.916666666666664  Z " stroke-width="0" stroke-dasharray="0" stroke="rgba(255, 255, 255, 0)" fill="none" transform="matrix(1 0 0 1 796 2325 )" class="stroke" mask="url(#Clip2)" />
    <path d="M 56.31597222222222 20.270833333333336  C 55.01157407407408 16.09027777777777  52.57291666666667 12.625  49 9.875  C 45.427083333333336 12.625  42.98842592592593 16.09027777777777  41.68402777777778 20.270833333333336  C 40.379629629629626 24.451388888888886  40.37254050925927 28.624999999999993  41.662760416666664 32.79166666666667  C 42.952980324074076 36.95833333333333  45.39872685185186 40.41666666666667  49 43.16666666666667  C 52.60127314814815 40.41666666666667  55.04701967592593 36.95833333333333  56.33723958333333 32.79166666666667  C 57.627459490740755 28.624999999999993  57.620370370370374 24.451388888888886  56.31597222222222 20.270833333333336  Z " stroke-width="0" stroke-dasharray="0" stroke="rgba(255, 255, 255, 0)" fill="none" transform="matrix(1 0 0 1 796 2325 )" class="stroke" mask="url(#Clip2)" />
    <path d="M 62.35590277777778 5.333333333333336  C 58.01736111111111 5.333333333333336  54.03327546296296 6.513888888888886  50.40364583333333 8.875  C 54.08998842592593 11.847222222222221  56.60662615740741 15.534722222222221  57.95355902777778 19.9375  C 59.30049189814815 24.34027777777777  59.307581018518526 28.74305555555555  57.97482638888889 33.14583333333333  C 56.64207175925926 37.548611111111114  54.11834490740741 41.222222222222214  50.40364583333333 44.16666666666667  C 54.03327546296296 46.52777777777777  58.01736111111111 47.70833333333333  62.35590277777778 47.70833333333333  C 65.30497685185186 47.70833333333333  68.11226851851853 47.14583333333333  70.77777777777777 46.02083333333333  C 73.44328703703705 44.89583333333333  75.74016203703705 43.388888888888886  77.66840277777777 41.5  C 79.59664351851853 39.6111111111111  81.1349826388889 37.361111111111114  82.2834201388889 34.75  C 83.4318576388889 32.138888888888886  84.0060763888889 29.388888888888886  84.0060763888889 26.5  C 84.0060763888889 23.638888888888886  83.4318576388889 20.90277777777777  82.2834201388889 18.291666666666664  C 81.1349826388889 15.68055555555555  79.59664351851853 13.43055555555555  77.66840277777777 11.541666666666664  C 75.74016203703705 9.652777777777771  73.43619791666669 8.145833333333336  70.75651041666667 7.020833333333336  C 68.07682291666669 5.895833333333336  65.27662037037038 5.333333333333336  62.35590277777778 5.333333333333336  Z " stroke-width="0" stroke-dasharray="0" stroke="rgba(255, 255, 255, 0)" fill="none" transform="matrix(1 0 0 1 796 2325 )" class="stroke" mask="url(#Clip2)" />
    <path d="M 81.921875 39.66666666666667  L 81.921875 38.95833333333333  L 82.21961805555556 38.95833333333333  L 82.21961805555556 38.83333333333333  L 81.49652777777777 38.83333333333333  L 81.49652777777777 38.95833333333333  L 81.79427083333333 38.95833333333333  L 81.79427083333333 39.66666666666667  L 81.921875 39.66666666666667  Z " stroke-width="0" stroke-dasharray="0" stroke="rgba(255, 255, 255, 0)" fill="none" transform="matrix(1 0 0 1 796 2325 )" class="stroke" mask="url(#Clip2)" />
    <path d="M 83.15538194444444 39.04166666666667  L 83.15538194444444 39.66666666666667  L 83.32552083333333 39.66666666666667  L 83.32552083333333 38.83333333333333  L 83.11284722222223 38.83333333333333  L 82.8576388888889 39.375  L 82.60243055555556 38.83333333333333  L 82.38975694444444 38.83333333333333  L 82.38975694444444 39.66666666666667  L 82.5173611111111 39.66666666666667  L 82.5173611111111 39.04166666666667  L 82.77256944444444 39.58333333333333  L 82.94270833333333 39.58333333333333  L 83.15538194444444 39.04166666666667  Z " stroke-width="0" stroke-dasharray="0" stroke="rgba(255, 255, 255, 0)" fill="none" transform="matrix(1 0 0 1 796 2325 )" class="stroke" mask="url(#Clip2)" />
    <path d="M 82.81510416666667 57.958333333333336  L 82.81510416666667 58  L 82.81510416666667 58.083333333333336  L 82.73003472222223 58.083333333333336  L 82.60243055555556 58.083333333333336  L 82.60243055555556 57.958333333333336  L 82.73003472222223 57.958333333333336  L 82.81510416666667 57.958333333333336  Z " stroke-width="0" stroke-dasharray="0" stroke="rgba(255, 255, 255, 0)" fill="none" transform="matrix(1 0 0 1 796 2325 )" class="stroke" mask="url(#Clip2)" />
    <path d="M 82.64496527777777 58.166666666666664  L 82.81510416666667 58.375  L 82.94270833333333 58.375  L 82.77256944444444 58.166666666666664  L 82.8576388888889 58.166666666666664  L 82.9001736111111 58.125  C 82.92853009259261 58.09722222222222  82.94270833333334 58.05555555555555  82.94270833333333 58  C 82.94270833333334 57.94444444444445  82.92853009259261 57.90277777777778  82.9001736111111 57.875  L 82.8576388888889 57.833333333333336  L 82.73003472222223 57.833333333333336  L 82.4748263888889 57.833333333333336  L 82.4748263888889 58.375  L 82.60243055555556 58.375  L 82.60243055555556 58.166666666666664  L 82.64496527777777 58.166666666666664  Z " stroke-width="0" stroke-dasharray="0" stroke="rgba(255, 255, 255, 0)" fill="none" transform="matrix(1 0 0 1 796 2325 )" class="stroke" mask="url(#Clip2)" />
    <path d="M 29.604166666666664 56.833333333333336  C 29.292245370370377 56.5  29.136284722222225 56.06944444444445  29.136284722222225 55.541666666666664  C 29.136284722222225 55.013888888888886  29.292245370370377 54.583333333333336  29.604166666666664 54.25  C 29.916087962962965 53.916666666666664  30.341435185185187 53.75  30.880208333333336 53.75  C 31.390625 53.75  31.80179398148148 53.923611111111114  32.11371527777778 54.270833333333336  C 32.425636574074076 54.61805555555555  32.58159722222222 55.041666666666664  32.58159722222222 55.541666666666664  C 32.58159722222222 56.06944444444445  32.425636574074076 56.5  32.11371527777778 56.833333333333336  C 31.80179398148148 57.166666666666664  31.390625 57.333333333333336  30.880208333333336 57.333333333333336  C 30.341435185185187 57.333333333333336  29.916087962962965 57.166666666666664  29.604166666666664 56.833333333333336  Z " stroke-width="0" stroke-dasharray="0" stroke="rgba(255, 255, 255, 0)" fill="none" transform="matrix(1 0 0 1 796 2325 )" class="stroke" mask="url(#Clip2)" />
    <path d="M 47.76649305555555 55.041666666666664  C 47.90827546296297 54.15277777777778  48.404513888888886 53.708333333333336  49.25520833333333 53.708333333333336  C 50.10590277777778 53.708333333333336  50.6021412037037 54.15277777777778  50.74392361111111 55.041666666666664  L 47.76649305555555 55.041666666666664  Z " stroke-width="0" stroke-dasharray="0" stroke="rgba(255, 255, 255, 0)" fill="none" transform="matrix(1 0 0 1 796 2325 )" class="stroke" mask="url(#Clip2)" />
    <path d="M 64.8654513888889 56.833333333333336  C 64.5535300925926 56.5  64.39756944444444 56.06944444444445  64.39756944444444 55.541666666666664  C 64.39756944444444 55.013888888888886  64.5535300925926 54.583333333333336  64.8654513888889 54.25  C 65.17737268518518 53.916666666666664  65.58854166666667 53.75  66.09895833333333 53.75  C 66.60937500000001 53.75  67.02763310185186 53.923611111111114  67.3537326388889 54.270833333333336  C 67.67983217592592 54.61805555555555  67.84288194444444 55.041666666666664  67.84288194444444 55.541666666666664  C 67.84288194444444 56.06944444444445  67.6869212962963 56.5  67.375 56.833333333333336  C 67.06307870370371 57.166666666666664  66.63773148148148 57.333333333333336  66.09895833333333 57.333333333333336  C 65.58854166666667 57.333333333333336  65.17737268518518 57.166666666666664  64.8654513888889 56.833333333333336  Z " stroke-width="0" stroke-dasharray="0" stroke="rgba(255, 255, 255, 0)" fill="none" transform="matrix(1 0 0 1 796 2325 )" class="stroke" mask="url(#Clip2)" />
    <path d="M 76.45616319444444 56.8125  C 76.1300636574074 56.46527777777778  75.9670138888889 56.041666666666664  75.9670138888889 55.541666666666664  C 75.9670138888889 55.041666666666664  76.1300636574074 54.61805555555555  76.45616319444444 54.270833333333336  C 76.7822627314815 53.923611111111114  77.20052083333334 53.75  77.7109375 53.75  C 78.22135416666669 53.75  78.63961226851853 53.923611111111114  78.96571180555556 54.270833333333336  C 79.2918113425926 54.61805555555555  79.4548611111111 55.041666666666664  79.4548611111111 55.541666666666664  C 79.4548611111111 56.06944444444445  79.2918113425926 56.5  78.96571180555556 56.833333333333336  C 78.63961226851853 57.166666666666664  78.22135416666669 57.333333333333336  77.7109375 57.333333333333336  C 77.20052083333334 57.333333333333336  76.7822627314815 57.15972222222222  76.45616319444444 56.8125  Z " stroke-width="0" stroke-dasharray="0" stroke="rgba(255, 255, 255, 0)" fill="none" transform="matrix(1 0 0 1 796 2325 )" class="stroke" mask="url(#Clip2)" />
    <path d="M 82.8576388888889 58.5  C 82.8292824074074 58.52777777777778  82.77256944444446 58.541666666666664  82.6875 58.541666666666664  C 82.63078703703704 58.541666666666664  82.57407407407408 58.52777777777778  82.5173611111111 58.5  C 82.48900462962963 58.5  82.4464699074074 58.47222222222222  82.38975694444444 58.416666666666664  C 82.3330439814815 58.361111111111114  82.30468750000001 58.31944444444445  82.3046875 58.291666666666664  C 82.27633101851853 58.236111111111114  82.26215277777777 58.18055555555555  82.26215277777777 58.125  C 82.26215277777777 58.041666666666664  82.27633101851853 57.986111111111114  82.3046875 57.958333333333336  C 82.30468750000001 57.90277777777778  82.3330439814815 57.84722222222222  82.38975694444444 57.791666666666664  L 82.43229166666667 57.75  C 82.48900462962963 57.75  82.5173611111111 57.736111111111114  82.5173611111111 57.708333333333336  C 82.57407407407408 57.68055555555555  82.63078703703704 57.666666666666664  82.6875 57.666666666666664  C 82.77256944444446 57.666666666666664  82.8292824074074 57.68055555555555  82.8576388888889 57.708333333333336  L 83.02777777777777 57.791666666666664  L 83.11284722222223 57.958333333333336  L 83.11284722222223 58  C 83.14120370370371 58.05555555555555  83.15538194444444 58.09722222222222  83.15538194444444 58.125  L 83.11284722222223 58.166666666666664  L 83.11284722222223 58.291666666666664  C 83.11284722222223 58.291666666666664  83.09866898148148 58.30555555555555  83.0703125 58.333333333333336  L 83.02777777777777 58.416666666666664  C 82.97106481481482 58.47222222222222  82.91435185185186 58.5  82.8576388888889 58.5  Z " stroke-width="0" stroke-dasharray="0" stroke="rgba(255, 255, 255, 0)" fill="none" transform="matrix(1 0 0 1 796 2325 )" class="stroke" mask="url(#Clip2)" />
    <path d="M 25.47829861111111 55.25  L 25.47829861111111 58.375  L 26.754340277777775 58.375  L 26.754340277777775 54.833333333333336  C 26.754340277777775 54.166666666666664  26.54875578703704 53.63194444444445  26.137586805555554 53.229166666666664  C 25.726417824074076 52.826388888888886  25.166377314814817 52.611111111111114  24.457465277777775 52.583333333333336  C 23.550057870370374 52.583333333333336  22.883680555555557 52.916666666666664  22.458333333333332 53.583333333333336  C 22.061342592592595 52.916666666666664  21.42332175925926 52.583333333333336  20.544270833333332 52.583333333333336  C 19.86371527777778 52.583333333333336  19.31076388888889 52.861111111111114  18.885416666666668 53.416666666666664  L 18.885416666666668 52.75  L 17.609375 52.75  L 17.609375 58.375  L 18.885416666666668 58.375  L 18.885416666666668 55.25  C 18.88541666666667 54.25  19.353298611111114 53.75  20.2890625 53.75  C 21.139756944444446 53.75  21.56510416666667 54.25  21.565104166666668 55.25  L 21.565104166666668 58.375  L 22.79861111111111 58.375  L 22.79861111111111 55.25  C 22.79861111111111 54.25  23.266493055555557 53.75  24.202256944444443 53.75  C 25.05295138888889 53.75  25.47829861111111 54.25  25.47829861111111 55.25  Z " stroke-width="0" stroke-dasharray="0" stroke="rgba(255, 255, 255, 0)" fill="none" transform="matrix(1 0 0 1 796 2325 )" class="stroke" mask="url(#Clip2)" />
    <path d="M 32.5390625 57.666666666666664  L 32.5390625 58.375  L 33.77256944444445 58.375  L 33.77256944444445 55.541666666666664  L 33.77256944444445 52.75  L 32.5390625 52.75  L 32.5390625 53.416666666666664  C 32.05700231481482 52.861111111111114  31.447337962962965 52.583333333333336  30.710069444444446 52.583333333333336  C 29.88773148148148 52.583333333333336  29.20717592592593 52.861111111111114  28.668402777777775 53.416666666666664  C 28.12962962962963 53.97222222222222  27.860243055555554 54.68055555555555  27.860243055555554 55.541666666666664  C 27.860243055555554 56.40277777777778  28.12962962962963 57.111111111111114  28.668402777777775 57.666666666666664  C 29.20717592592593 58.22222222222222  29.88773148148148 58.5  30.710069444444446 58.5  C 31.50405092592593 58.5  32.11371527777778 58.22222222222222  32.5390625 57.666666666666664  Z " stroke-width="0" stroke-dasharray="0" stroke="rgba(255, 255, 255, 0)" fill="none" transform="matrix(1 0 0 1 796 2325 )" class="stroke" mask="url(#Clip2)" />
    <path d="M 39.408420138888886 58  C 39.876302083333336 57.666666666666664  40.11024305555555 57.22222222222222  40.11024305555555 56.666666666666664  C 40.11024305555555 55.72222222222222  39.44386574074074 55.166666666666664  38.111111111111114 55  L 37.515625 54.916666666666664  C 36.86342592592593 54.80555555555555  36.537326388888886 54.611111111111114  36.537326388888886 54.333333333333336  C 36.537326388888886 53.916666666666664  36.89178240740741 53.708333333333336  37.60069444444445 53.708333333333336  C 38.25289351851852 53.708333333333336  38.862557870370374 53.861111111111114  39.4296875 54.166666666666664  L 39.940104166666664 53.166666666666664  C 39.316261574074076 52.77777777777778  38.536458333333336 52.583333333333336  37.60069444444445 52.583333333333336  C 36.86342592592593 52.583333333333336  36.28211805555556 52.75  35.856770833333336 53.083333333333336  C 35.431423611111114 53.416666666666664  35.21875000000001 53.861111111111114  35.21875 54.416666666666664  C 35.21875000000001 55.333333333333336  35.88512731481482 55.875  37.21788194444445 56.041666666666664  L 37.770833333333336 56.125  C 38.45138888888889 56.236111111111114  38.79166666666667 56.43055555555555  38.791666666666664 56.708333333333336  C 38.79166666666667 57.18055555555555  38.3521412037037 57.416666666666664  37.47309027777778 57.416666666666664  C 36.76417824074074 57.416666666666664  36.12615740740741 57.22222222222222  35.55902777777778 56.833333333333336  L 35.006076388888886 57.791666666666664  C 35.71498842592593 58.263888888888886  36.537326388888886 58.5  37.47309027777778 58.5  C 38.29542824074074 58.5  38.94053819444445 58.333333333333336  39.408420138888886 58  Z " stroke-width="0" stroke-dasharray="0" stroke="rgba(255, 255, 255, 0)" fill="none" transform="matrix(1 0 0 1 796 2325 )" class="stroke" mask="url(#Clip2)" />
    <path d="M 44.10850694444445 58.5  C 44.70399305555555 58.5  45.21440972222222 58.361111111111114  45.63975694444445 58.083333333333336  L 45.299479166666664 57.041666666666664  C 44.93084490740741 57.236111111111114  44.56221064814815 57.333333333333336  44.193576388888886 57.333333333333336  C 43.65480324074075 57.333333333333336  43.38541666666667 57.02777777777778  43.385416666666664 56.416666666666664  L 43.385416666666664 53.875  L 45.427083333333336 53.875  L 45.427083333333336 52.75  L 43.385416666666664 52.75  L 43.385416666666664 51.041666666666664  L 42.109375 51.041666666666664  L 42.109375 52.75  L 40.91840277777778 52.75  L 40.91840277777778 53.875  L 42.109375 53.875  L 42.109375 56.416666666666664  C 42.10937500000001 57.80555555555555  42.77575231481482 58.5  44.10850694444445 58.5  Z " stroke-width="0" stroke-dasharray="0" stroke="rgba(255, 255, 255, 0)" fill="none" transform="matrix(1 0 0 1 796 2325 )" class="stroke" mask="url(#Clip2)" />
    <path d="M 51.25434027777778 53.395833333333336  C 50.74392361111111 52.854166666666664  50.09172453703704 52.583333333333336  49.29774305555555 52.583333333333336  C 48.475405092592595 52.583333333333336  47.79484953703704 52.861111111111114  47.256076388888886 53.416666666666664  C 46.71730324074075 53.97222222222222  46.447916666666664 54.68055555555555  46.447916666666664 55.541666666666664  C 46.447916666666664 56.43055555555555  46.724392361111114 57.145833333333336  47.27734375 57.6875  C 47.830295138888886 58.229166666666664  48.53211805555555 58.5  49.3828125 58.5  C 50.31857638888889 58.5  51.09837962962963 58.236111111111114  51.72222222222222 57.708333333333336  L 51.12673611111111 56.791666666666664  C 50.61631944444445 57.208333333333336  50.06336805555555 57.416666666666664  49.46788194444445 57.416666666666664  C 48.50376157407408 57.416666666666664  47.9224537037037 56.958333333333336  47.723958333333336 56.041666666666664  L 52.01996527777778 56.041666666666664  L 52.01996527777778 55.541666666666664  C 52.01996527777778 54.65277777777778  51.76475694444445 53.9375  51.25434027777778 53.395833333333336  Z " stroke-width="0" stroke-dasharray="0" stroke="rgba(255, 255, 255, 0)" fill="none" transform="matrix(1 0 0 1 796 2325 )" class="stroke" mask="url(#Clip2)" />
    <path d="M 56.95399305555555 52.75  C 56.69878472222222 52.638888888888886  56.40104166666667 52.583333333333336  56.06076388888889 52.583333333333336  C 55.408564814814824 52.583333333333336  54.91232638888889 52.861111111111114  54.57204861111111 53.416666666666664  L 54.57204861111111 52.75  L 53.29600694444445 52.75  L 53.29600694444445 58.375  L 54.57204861111111 58.375  L 54.57204861111111 55.208333333333336  C 54.57204861111111 54.236111111111114  54.9832175925926 53.75  55.80555555555555 53.75  C 56.089120370370374 53.75  56.3443287037037 53.80555555555555  56.57118055555555 53.916666666666664  L 56.95399305555555 52.75  Z " stroke-width="0" stroke-dasharray="0" stroke="rgba(255, 255, 255, 0)" fill="none" transform="matrix(1 0 0 1 796 2325 )" class="stroke" mask="url(#Clip2)" />
    <path d="M 58.16623263888889 53.416666666666664  C 57.61328125 53.97222222222222  57.33680555555555 54.68055555555555  57.33680555555555 55.541666666666664  C 57.33680555555555 56.40277777777778  57.61328125 57.111111111111114  58.16623263888889 57.666666666666664  C 58.71918402777778 58.22222222222222  59.46354166666667 58.5  60.39930555555555 58.5  C 61.221643518518526 58.5  61.90219907407408 58.27777777777778  62.44097222222222 57.833333333333336  L 61.84548611111111 56.833333333333336  C 61.33506944444445 57.19444444444445  60.838831018518526 57.361111111111114  60.35677083333333 57.333333333333336  C 59.84635416666667 57.333333333333336  59.428096064814824 57.166666666666664  59.10199652777778 56.833333333333336  C 58.775896990740755 56.5  58.61284722222222 56.06944444444445  58.61284722222222 55.541666666666664  C 58.61284722222222 55.013888888888886  58.775896990740755 54.583333333333336  59.10199652777778 54.25  C 59.428096064814824 53.916666666666664  59.84635416666667 53.75  60.35677083333333 53.75  C 60.89554398148148 53.75  61.39178240740741 53.916666666666664  61.84548611111111 54.25  L 62.44097222222222 53.25  C 61.8738425925926 52.80555555555555  61.19328703703704 52.583333333333336  60.39930555555555 52.583333333333336  C 59.46354166666667 52.583333333333336  58.71918402777778 52.861111111111114  58.16623263888889 53.416666666666664  Z " stroke-width="0" stroke-dasharray="0" stroke="rgba(255, 255, 255, 0)" fill="none" transform="matrix(1 0 0 1 796 2325 )" class="stroke" mask="url(#Clip2)" />
    <path d="M 67.7578125 57.666666666666664  L 67.7578125 58.375  L 69.03385416666667 58.375  L 69.03385416666667 55.541666666666664  L 69.03385416666667 52.75  L 67.7578125 52.75  L 67.7578125 53.416666666666664  C 67.33246527777779 52.861111111111114  66.73697916666669 52.583333333333336  65.97135416666667 52.583333333333336  C 65.14901620370371 52.583333333333336  64.46137152777777 52.861111111111114  63.90842013888889 53.416666666666664  C 63.35546875 53.97222222222222  63.07899305555555 54.68055555555555  63.07899305555555 55.541666666666664  C 63.07899305555555 56.40277777777778  63.35546875 57.111111111111114  63.90842013888889 57.666666666666664  C 64.46137152777777 58.22222222222222  65.14901620370371 58.5  65.97135416666667 58.5  C 66.76533564814815 58.5  67.36082175925925 58.22222222222222  67.7578125 57.666666666666664  Z " stroke-width="0" stroke-dasharray="0" stroke="rgba(255, 255, 255, 0)" fill="none" transform="matrix(1 0 0 1 796 2325 )" class="stroke" mask="url(#Clip2)" />
    <path d="M 74.30815972222223 52.75  C 74.08130787037038 52.638888888888886  73.78356481481482 52.583333333333336  73.41493055555556 52.583333333333336  C 72.76273148148148 52.583333333333336  72.26649305555556 52.861111111111114  71.92621527777777 53.416666666666664  L 71.92621527777777 52.75  L 70.69270833333333 52.75  L 70.69270833333333 58.375  L 71.92621527777777 58.375  L 71.92621527777777 55.208333333333336  C 71.92621527777777 54.236111111111114  72.33738425925925 53.75  73.15972222222223 53.75  C 73.44328703703704 53.75  73.69849537037038 53.80555555555555  73.92534722222223 53.916666666666664  L 74.30815972222223 52.75  Z " stroke-width="0" stroke-dasharray="0" stroke="rgba(255, 255, 255, 0)" fill="none" transform="matrix(1 0 0 1 796 2325 )" class="stroke" mask="url(#Clip2)" />
    <path d="M 79.36979166666667 57.666666666666664  L 79.36979166666667 58.375  L 80.6032986111111 58.375  L 80.6032986111111 55.541666666666664  L 80.6032986111111 50.458333333333336  L 79.36979166666667 50.458333333333336  L 79.36979166666667 53.416666666666664  C 78.94444444444446 52.861111111111114  78.33478009259261 52.583333333333336  77.5407986111111 52.583333333333336  C 76.74681712962963 52.583333333333336  76.07335069444444 52.86805555555555  75.52039930555556 53.4375  C 74.96744791666667 54.00694444444445  74.69097222222223 54.708333333333336  74.69097222222223 55.541666666666664  C 74.69097222222223 56.375  74.96744791666667 57.076388888888886  75.52039930555556 57.645833333333336  C 76.07335069444444 58.21527777777778  76.74681712962963 58.5  77.5407986111111 58.5  C 78.36313657407408 58.5  78.97280092592592 58.22222222222222  79.36979166666667 57.666666666666664  Z " stroke-width="0" stroke-dasharray="0" stroke="rgba(255, 255, 255, 0)" fill="none" transform="matrix(1 0 0 1 796 2325 )" class="stroke" mask="url(#Clip2)" />
    <path d="M 82.81510416666667 57.5625  C 82.75839120370371 57.548611111111114  82.71585648148148 57.541666666666664  82.6875 57.541666666666664  L 82.60243055555556 57.583333333333336  L 82.4748263888889 57.583333333333336  C 82.41811342592592 57.611111111111114  82.36140046296296 57.65277777777778  82.3046875 57.708333333333336  C 82.21961805555556 57.736111111111114  82.17708333333334 57.791666666666664  82.17708333333333 57.875  C 82.14872685185186 57.93055555555555  82.1345486111111 58.013888888888886  82.1345486111111 58.125  C 82.1345486111111 58.208333333333336  82.14872685185186 58.27777777777778  82.17708333333333 58.333333333333336  C 82.17708333333334 58.388888888888886  82.21961805555556 58.44444444444445  82.3046875 58.5  C 82.36140046296296 58.55555555555555  82.41811342592592 58.59722222222222  82.4748263888889 58.625  C 82.53153935185186 58.65277777777778  82.60243055555556 58.666666666666664  82.6875 58.666666666666664  C 82.80092592592592 58.666666666666664  82.88599537037038 58.65277777777778  82.94270833333333 58.625  C 82.94270833333334 58.59722222222222  82.97106481481482 58.56944444444445  83.02777777777777 58.541666666666664  L 83.11284722222223 58.5  C 83.14120370370371 58.47222222222222  83.18373842592592 58.416666666666664  83.2404513888889 58.333333333333336  C 83.26880787037038 58.27777777777778  83.2829861111111 58.208333333333336  83.2829861111111 58.125  C 83.2829861111111 58.013888888888886  83.26880787037038 57.93055555555555  83.2404513888889 57.875  C 83.2120949074074 57.84722222222222  83.16956018518519 57.791666666666664  83.11284722222223 57.708333333333336  C 83.11284722222223 57.68055555555555  83.08449074074075 57.65277777777778  83.02777777777777 57.625  L 82.94270833333333 57.583333333333336  C 82.91435185185186 57.583333333333336  82.87181712962963 57.576388888888886  82.81510416666667 57.5625  Z " stroke-width="0" stroke-dasharray="0" stroke="rgba(255, 255, 255, 0)" fill="none" transform="matrix(1 0 0 1 796 2325 )" class="stroke" mask="url(#Clip2)" />
    <path d="M 96.38368055555556 1.5833333333333357  C 97.46122685185186 2.6388888888888857  98 3.8888888888888857  98 5.333333333333336  L 98 58.666666666666664  C 98 60.111111111111114  97.46122685185186 61.361111111111114  96.38368055555556 62.416666666666664  C 95.30613425925927 63.47222222222222  94.03009259259261 64  92.55555555555556 64  L 5.444444444444444 64  C 3.969907407407408 64  2.693865740740741 63.47222222222222  1.6163194444444444 62.416666666666664  C 0.5387731481481481 61.361111111111114  0 60.111111111111114  0 58.666666666666664  L 0 5.333333333333336  C 0 3.8888888888888857  0.5387731481481481 2.6388888888888857  1.6163194444444444 1.5833333333333357  C 2.693865740740741 0.5277777777777715  3.969907407407408 0  5.444444444444444 0  L 92.55555555555556 0  C 94.03009259259261 0  95.30613425925927 0.5277777777777715  96.38368055555556 1.5833333333333357  Z " stroke-width="0" stroke-dasharray="0" stroke="rgba(255, 255, 255, 0)" fill="none" transform="matrix(1 0 0 1 796 2325 )" class="stroke" mask="url(#Clip2)" />
  </g>
</svg>