<?xml version="1.0" encoding="utf-8"?>
<svg version="1.1" xmlns:xlink="http://www.w3.org/1999/xlink" width="98px" height="68px" xmlns="http://www.w3.org/2000/svg">
  <defs>
    <pattern id="BGPattern" patternUnits="userSpaceOnUse" alignment="0 0" imageRepeat="None" />
    <mask fill="white" id="Clip3">
      <path d="M 82.38975694444444 29.971354166666668  L 84.0060763888889 38.161458333333336  L 78.13628472222223 38.161458333333336  C 78.53327546296296 37.06944444444444  79.46903935185186 34.427951388888886  80.9435763888889 30.236979166666668  L 81.07118055555556 29.838541666666668  C 81.18460648148148 29.54340277777777  81.3263888888889 29.15972222222222  81.49652777777777 28.6875  C 81.66666666666667 28.21527777777777  81.79427083333333 27.83159722222222  81.87934027777777 27.536458333333332  L 82.38975694444444 29.971354166666668  Z M 5.444444444444444 20.408854166666668  C 14.263310185185189 22.74045138888889  19.977141203703706 27.69878472222222  22.5859375 35.283854166666664  L 20.11892361111111 22.223958333333332  C 19.807002314814817 20.630208333333332  18.743634259259263 19.833333333333332  16.928819444444443 20  L 5.529513888888889 20  L 5.444444444444444 20.408854166666668  Z M 37.685763888888886 19.833333333333332  L 30.199652777777775 19.833333333333332  L 23.309027777777775 39.223958333333336  L 22.5859375 35.283854166666664  C 21.848668981481485 33.21788194444444  20.64351851851852 31.30685763888889  18.97048611111111 29.55078125  C 17.297453703703706 27.79470486111111  15.44010416666667 26.48871527777777  13.3984375 25.6328125  L 19.140625 48.2109375  L 26.58420138888889 48.2109375  L 37.685763888888886 19.833333333333332  Z M 40.53559027777778 19.833333333333332  L 36.111979166666664 48.255208333333336  L 43.17274305555555 48.255208333333336  L 47.596354166666664 19.833333333333332  L 40.53559027777778 19.833333333333332  Z M 67.80034722222223 26.6953125  L 68.77864583333333 20.541666666666668  C 66.82204861111111 19.744791666666668  64.70949074074075 19.346354166666668  62.44097222222222 19.346354166666668  C 58.953125 19.346354166666668  56.10329861111111 20.217013888888882  53.89149305555555 21.958333333333332  C 51.6796875 23.69965277777777  50.55960648148148 25.95746527777777  50.53125 28.731770833333332  C 50.502893518518526 31.7421875  52.55873842592593 34.309895833333336  56.69878472222222 36.434895833333336  C 58.05989583333333 37.11371527777778  59.00983796296296 37.71875  59.54861111111111 38.25  C 60.08738425925926 38.78125  60.35677083333333 39.356770833333336  60.35677083333333 39.9765625  C 60.35677083333333 40.861979166666664  59.93142361111111 41.5407986111111  59.08072916666667 42.013020833333336  C 58.23003472222222 42.48524305555554  57.25173611111111 42.721354166666664  56.14583333333333 42.721354166666664  C 53.70717592592593 42.721354166666664  51.495370370370374 42.234375  49.51041666666667 41.260416666666664  L 48.57465277777778 40.7734375  L 47.596354166666664 47.1484375  C 49.694733796296305 48.15190972222222  52.31770833333333 48.653645833333336  55.46527777777778 48.653645833333336  C 59.151620370370374 48.68315972222222  62.107783564814824 47.8125  64.3337673611111 46.041666666666664  C 66.5597511574074 44.270833333333336  67.70109953703704 41.90972222222222  67.7578125 38.958333333333336  C 67.75781250000001 35.8298611111111  65.7728587962963 33.26215277777777  61.80295138888889 31.255208333333332  C 60.413483796296305 30.51736111111111  59.4068287037037 29.897569444444443  58.78298611111111 29.395833333333332  C 58.159143518518526 28.89409722222222  57.84722222222222 28.333333333333332  57.84722222222222 27.713541666666668  C 57.84722222222222 27.06423611111111  58.194589120370374 26.496093749999993  58.88932291666667 26.009114583333332  C 59.58405671296296 25.52213541666666  60.58362268518519 25.278645833333332  61.88802083333333 25.278645833333332  C 63.87297453703704 25.249131944444443  65.6310763888889 25.60329861111111  67.1623263888889 26.341145833333332  L 67.80034722222223 26.6953125  Z M 92.55555555555556 48.255208333333336  L 86.85590277777777 19.833333333333332  L 81.41145833333333 19.833333333333332  C 79.56828703703704 19.833333333333332  78.3347800925926 20.630208333333332  77.7109375 22.223958333333332  L 67.24739583333333 48.255208333333336  L 74.6484375 48.255208333333336  L 76.13715277777777 44.005208333333336  L 85.1545138888889 44.005208333333336  C 85.2962962962963 44.654513888888886  85.57986111111111 46.07118055555554  86.00520833333333 48.255208333333336  L 92.55555555555556 48.255208333333336  Z M 96.38368055555556 1.6822916666666692  C 97.46122685185186 2.803819444444441  98 4.131944444444441  98 5.66666666666667  L 98 62.33333333333333  C 98 63.86805555555556  97.46122685185186 65.19618055555556  96.38368055555556 66.31770833333333  C 95.30613425925927 67.43923611111111  94.03009259259261 68  92.55555555555556 68  L 5.444444444444444 68  C 3.969907407407408 68  2.693865740740741 67.43923611111111  1.6163194444444444 66.31770833333333  C 0.5387731481481481 65.19618055555556  0 63.86805555555556  0 62.33333333333333  L 0 5.66666666666667  C 0 4.131944444444441  0.5387731481481481 2.803819444444441  1.6163194444444444 1.6822916666666692  C 2.693865740740741 0.5607638888888822  3.969907407407408 0  5.444444444444444 0  L 92.55555555555556 0  C 94.03009259259261 0  95.30613425925927 0.5607638888888822  96.38368055555556 1.6822916666666692  Z " fill-rule="evenodd" />
    </mask>
  </defs>
  <g transform="matrix(1 0 0 1 -966 -2321 )">
    <path d="M 82.38975694444444 29.971354166666668  L 84.0060763888889 38.161458333333336  L 78.13628472222223 38.161458333333336  C 78.53327546296296 37.06944444444444  79.46903935185186 34.427951388888886  80.9435763888889 30.236979166666668  L 81.07118055555556 29.838541666666668  C 81.18460648148148 29.54340277777777  81.3263888888889 29.15972222222222  81.49652777777777 28.6875  C 81.66666666666667 28.21527777777777  81.79427083333333 27.83159722222222  81.87934027777777 27.536458333333332  L 82.38975694444444 29.971354166666668  Z M 5.444444444444444 20.408854166666668  C 14.263310185185189 22.74045138888889  19.977141203703706 27.69878472222222  22.5859375 35.283854166666664  L 20.11892361111111 22.223958333333332  C 19.807002314814817 20.630208333333332  18.743634259259263 19.833333333333332  16.928819444444443 20  L 5.529513888888889 20  L 5.444444444444444 20.408854166666668  Z M 37.685763888888886 19.833333333333332  L 30.199652777777775 19.833333333333332  L 23.309027777777775 39.223958333333336  L 22.5859375 35.283854166666664  C 21.848668981481485 33.21788194444444  20.64351851851852 31.30685763888889  18.97048611111111 29.55078125  C 17.297453703703706 27.79470486111111  15.44010416666667 26.48871527777777  13.3984375 25.6328125  L 19.140625 48.2109375  L 26.58420138888889 48.2109375  L 37.685763888888886 19.833333333333332  Z M 40.53559027777778 19.833333333333332  L 36.111979166666664 48.255208333333336  L 43.17274305555555 48.255208333333336  L 47.596354166666664 19.833333333333332  L 40.53559027777778 19.833333333333332  Z M 67.80034722222223 26.6953125  L 68.77864583333333 20.541666666666668  C 66.82204861111111 19.744791666666668  64.70949074074075 19.346354166666668  62.44097222222222 19.346354166666668  C 58.953125 19.346354166666668  56.10329861111111 20.217013888888882  53.89149305555555 21.958333333333332  C 51.6796875 23.69965277777777  50.55960648148148 25.95746527777777  50.53125 28.731770833333332  C 50.502893518518526 31.7421875  52.55873842592593 34.309895833333336  56.69878472222222 36.434895833333336  C 58.05989583333333 37.11371527777778  59.00983796296296 37.71875  59.54861111111111 38.25  C 60.08738425925926 38.78125  60.35677083333333 39.356770833333336  60.35677083333333 39.9765625  C 60.35677083333333 40.861979166666664  59.93142361111111 41.5407986111111  59.08072916666667 42.013020833333336  C 58.23003472222222 42.48524305555554  57.25173611111111 42.721354166666664  56.14583333333333 42.721354166666664  C 53.70717592592593 42.721354166666664  51.495370370370374 42.234375  49.51041666666667 41.260416666666664  L 48.57465277777778 40.7734375  L 47.596354166666664 47.1484375  C 49.694733796296305 48.15190972222222  52.31770833333333 48.653645833333336  55.46527777777778 48.653645833333336  C 59.151620370370374 48.68315972222222  62.107783564814824 47.8125  64.3337673611111 46.041666666666664  C 66.5597511574074 44.270833333333336  67.70109953703704 41.90972222222222  67.7578125 38.958333333333336  C 67.75781250000001 35.8298611111111  65.7728587962963 33.26215277777777  61.80295138888889 31.255208333333332  C 60.413483796296305 30.51736111111111  59.4068287037037 29.897569444444443  58.78298611111111 29.395833333333332  C 58.159143518518526 28.89409722222222  57.84722222222222 28.333333333333332  57.84722222222222 27.713541666666668  C 57.84722222222222 27.06423611111111  58.194589120370374 26.496093749999993  58.88932291666667 26.009114583333332  C 59.58405671296296 25.52213541666666  60.58362268518519 25.278645833333332  61.88802083333333 25.278645833333332  C 63.87297453703704 25.249131944444443  65.6310763888889 25.60329861111111  67.1623263888889 26.341145833333332  L 67.80034722222223 26.6953125  Z M 92.55555555555556 48.255208333333336  L 86.85590277777777 19.833333333333332  L 81.41145833333333 19.833333333333332  C 79.56828703703704 19.833333333333332  78.3347800925926 20.630208333333332  77.7109375 22.223958333333332  L 67.24739583333333 48.255208333333336  L 74.6484375 48.255208333333336  L 76.13715277777777 44.005208333333336  L 85.1545138888889 44.005208333333336  C 85.2962962962963 44.654513888888886  85.57986111111111 46.07118055555554  86.00520833333333 48.255208333333336  L 92.55555555555556 48.255208333333336  Z M 96.38368055555556 1.6822916666666692  C 97.46122685185186 2.803819444444441  98 4.131944444444441  98 5.66666666666667  L 98 62.33333333333333  C 98 63.86805555555556  97.46122685185186 65.19618055555556  96.38368055555556 66.31770833333333  C 95.30613425925927 67.43923611111111  94.03009259259261 68  92.55555555555556 68  L 5.444444444444444 68  C 3.969907407407408 68  2.693865740740741 67.43923611111111  1.6163194444444444 66.31770833333333  C 0.5387731481481481 65.19618055555556  0 63.86805555555556  0 62.33333333333333  L 0 5.66666666666667  C 0 4.131944444444441  0.5387731481481481 2.803819444444441  1.6163194444444444 1.6822916666666692  C 2.693865740740741 0.5607638888888822  3.969907407407408 0  5.444444444444444 0  L 92.55555555555556 0  C 94.03009259259261 0  95.30613425925927 0.5607638888888822  96.38368055555556 1.6822916666666692  Z " fill-rule="nonzero" fill="rgba(255, 255, 255, 0.6980392156862745)" stroke="none" transform="matrix(1 0 0 1 966 2321 )" class="fill" />
    <path d="M 82.38975694444444 29.971354166666668  L 84.0060763888889 38.161458333333336  L 78.13628472222223 38.161458333333336  C 78.53327546296296 37.06944444444444  79.46903935185186 34.427951388888886  80.9435763888889 30.236979166666668  L 81.07118055555556 29.838541666666668  C 81.18460648148148 29.54340277777777  81.3263888888889 29.15972222222222  81.49652777777777 28.6875  C 81.66666666666667 28.21527777777777  81.79427083333333 27.83159722222222  81.87934027777777 27.536458333333332  L 82.38975694444444 29.971354166666668  Z " stroke-width="0" stroke-dasharray="0" stroke="rgba(255, 255, 255, 0)" fill="none" transform="matrix(1 0 0 1 966 2321 )" class="stroke" mask="url(#Clip3)" />
    <path d="M 5.444444444444444 20.408854166666668  C 14.263310185185189 22.74045138888889  19.977141203703706 27.69878472222222  22.5859375 35.283854166666664  L 20.11892361111111 22.223958333333332  C 19.807002314814817 20.630208333333332  18.743634259259263 19.833333333333332  16.928819444444443 20  L 5.529513888888889 20  L 5.444444444444444 20.408854166666668  Z " stroke-width="0" stroke-dasharray="0" stroke="rgba(255, 255, 255, 0)" fill="none" transform="matrix(1 0 0 1 966 2321 )" class="stroke" mask="url(#Clip3)" />
    <path d="M 37.685763888888886 19.833333333333332  L 30.199652777777775 19.833333333333332  L 23.309027777777775 39.223958333333336  L 22.5859375 35.283854166666664  C 21.848668981481485 33.21788194444444  20.64351851851852 31.30685763888889  18.97048611111111 29.55078125  C 17.297453703703706 27.79470486111111  15.44010416666667 26.48871527777777  13.3984375 25.6328125  L 19.140625 48.2109375  L 26.58420138888889 48.2109375  L 37.685763888888886 19.833333333333332  Z " stroke-width="0" stroke-dasharray="0" stroke="rgba(255, 255, 255, 0)" fill="none" transform="matrix(1 0 0 1 966 2321 )" class="stroke" mask="url(#Clip3)" />
    <path d="M 40.53559027777778 19.833333333333332  L 36.111979166666664 48.255208333333336  L 43.17274305555555 48.255208333333336  L 47.596354166666664 19.833333333333332  L 40.53559027777778 19.833333333333332  Z " stroke-width="0" stroke-dasharray="0" stroke="rgba(255, 255, 255, 0)" fill="none" transform="matrix(1 0 0 1 966 2321 )" class="stroke" mask="url(#Clip3)" />
    <path d="M 67.80034722222223 26.6953125  L 68.77864583333333 20.541666666666668  C 66.82204861111111 19.744791666666668  64.70949074074075 19.346354166666668  62.44097222222222 19.346354166666668  C 58.953125 19.346354166666668  56.10329861111111 20.217013888888882  53.89149305555555 21.958333333333332  C 51.6796875 23.69965277777777  50.55960648148148 25.95746527777777  50.53125 28.731770833333332  C 50.502893518518526 31.7421875  52.55873842592593 34.309895833333336  56.69878472222222 36.434895833333336  C 58.05989583333333 37.11371527777778  59.00983796296296 37.71875  59.54861111111111 38.25  C 60.08738425925926 38.78125  60.35677083333333 39.356770833333336  60.35677083333333 39.9765625  C 60.35677083333333 40.861979166666664  59.93142361111111 41.5407986111111  59.08072916666667 42.013020833333336  C 58.23003472222222 42.48524305555554  57.25173611111111 42.721354166666664  56.14583333333333 42.721354166666664  C 53.70717592592593 42.721354166666664  51.495370370370374 42.234375  49.51041666666667 41.260416666666664  L 48.57465277777778 40.7734375  L 47.596354166666664 47.1484375  C 49.694733796296305 48.15190972222222  52.31770833333333 48.653645833333336  55.46527777777778 48.653645833333336  C 59.151620370370374 48.68315972222222  62.107783564814824 47.8125  64.3337673611111 46.041666666666664  C 66.5597511574074 44.270833333333336  67.70109953703704 41.90972222222222  67.7578125 38.958333333333336  C 67.75781250000001 35.8298611111111  65.7728587962963 33.26215277777777  61.80295138888889 31.255208333333332  C 60.413483796296305 30.51736111111111  59.4068287037037 29.897569444444443  58.78298611111111 29.395833333333332  C 58.159143518518526 28.89409722222222  57.84722222222222 28.333333333333332  57.84722222222222 27.713541666666668  C 57.84722222222222 27.06423611111111  58.194589120370374 26.496093749999993  58.88932291666667 26.009114583333332  C 59.58405671296296 25.52213541666666  60.58362268518519 25.278645833333332  61.88802083333333 25.278645833333332  C 63.87297453703704 25.249131944444443  65.6310763888889 25.60329861111111  67.1623263888889 26.341145833333332  L 67.80034722222223 26.6953125  Z " stroke-width="0" stroke-dasharray="0" stroke="rgba(255, 255, 255, 0)" fill="none" transform="matrix(1 0 0 1 966 2321 )" class="stroke" mask="url(#Clip3)" />
    <path d="M 92.55555555555556 48.255208333333336  L 86.85590277777777 19.833333333333332  L 81.41145833333333 19.833333333333332  C 79.56828703703704 19.833333333333332  78.3347800925926 20.630208333333332  77.7109375 22.223958333333332  L 67.24739583333333 48.255208333333336  L 74.6484375 48.255208333333336  L 76.13715277777777 44.005208333333336  L 85.1545138888889 44.005208333333336  C 85.2962962962963 44.654513888888886  85.57986111111111 46.07118055555554  86.00520833333333 48.255208333333336  L 92.55555555555556 48.255208333333336  Z " stroke-width="0" stroke-dasharray="0" stroke="rgba(255, 255, 255, 0)" fill="none" transform="matrix(1 0 0 1 966 2321 )" class="stroke" mask="url(#Clip3)" />
    <path d="M 96.38368055555556 1.6822916666666692  C 97.46122685185186 2.803819444444441  98 4.131944444444441  98 5.66666666666667  L 98 62.33333333333333  C 98 63.86805555555556  97.46122685185186 65.19618055555556  96.38368055555556 66.31770833333333  C 95.30613425925927 67.43923611111111  94.03009259259261 68  92.55555555555556 68  L 5.444444444444444 68  C 3.969907407407408 68  2.693865740740741 67.43923611111111  1.6163194444444444 66.31770833333333  C 0.5387731481481481 65.19618055555556  0 63.86805555555556  0 62.33333333333333  L 0 5.66666666666667  C 0 4.131944444444441  0.5387731481481481 2.803819444444441  1.6163194444444444 1.6822916666666692  C 2.693865740740741 0.5607638888888822  3.969907407407408 0  5.444444444444444 0  L 92.55555555555556 0  C 94.03009259259261 0  95.30613425925927 0.5607638888888822  96.38368055555556 1.6822916666666692  Z " stroke-width="0" stroke-dasharray="0" stroke="rgba(255, 255, 255, 0)" fill="none" transform="matrix(1 0 0 1 966 2321 )" class="stroke" mask="url(#Clip3)" />
  </g>
</svg>