<?xml version="1.0" encoding="utf-8"?>
<svg version="1.1" xmlns:xlink="http://www.w3.org/1999/xlink" width="80px" height="80px" xmlns="http://www.w3.org/2000/svg">
  <defs>
    <pattern id="BGPattern" patternUnits="userSpaceOnUse" alignment="0 0" imageRepeat="None" />
    <mask fill="white" id="Clip4">
      <path d="M 45.859375 17.68229166666667  C 47.47395833333334 19.296875  48.28125000000001 21.25  48.28125 23.54166666666667  C 48.28125000000001 25.83333333333333  47.47395833333334 27.78645833333333  45.859375 29.40104166666667  C 44.24479166666667 31.015625  42.29166666666667 31.82291666666667  40 31.82291666666667  C 37.708333333333336 31.82291666666667  35.755208333333336 31.015625  34.140625 29.40104166666667  C 32.526041666666664 27.78645833333333  31.71875 25.83333333333333  31.71875 23.54166666666667  C 31.71875 21.25  32.526041666666664 19.296875  34.140625 17.68229166666667  C 35.755208333333336 16.06770833333333  37.708333333333336 15.26041666666667  40 15.26041666666667  C 42.29166666666667 15.26041666666667  44.24479166666667 16.06770833333333  45.859375 17.68229166666667  Z M 59.53125 46.328125  C 60.22569444444446 45.30381944444444  60.19097222222222 44.01041666666666  59.42708333333333 42.44791666666666  C 59.079861111111114 41.753472222222214  58.59375 41.19791666666666  57.96875 40.78125  C 57.34375 40.36458333333334  56.51909722222222 40.19965277777777  55.49479166666667 40.28645833333334  C 54.470486111111114 40.37326388888889  53.42013888888889 40.85069444444444  52.34375 41.71875  C 51.99652777777778 41.99652777777777  51.493055555555564 42.34375  50.83333333333333 42.76041666666666  C 50.173611111111114 43.17708333333334  48.767361111111114 43.73263888888889  46.61458333333333 44.42708333333334  C 44.461805555555564 45.12152777777777  42.25694444444444 45.46875  40 45.46875  C 37.74305555555556 45.46875  35.59027777777778 45.15625  33.541666666666664 44.53125  C 31.493055555555557 43.90625  30 43.28125  29.0625 42.65625  L 27.65625 41.71875  C 26.57986111111111 40.85069444444444  25.52951388888889 40.37326388888889  24.505208333333336 40.28645833333334  C 23.480902777777782 40.19965277777777  22.656250000000004 40.36458333333334  22.03125 40.78125  C 21.406250000000004 41.19791666666666  20.920138888888893 41.753472222222214  20.572916666666664 42.44791666666666  C 19.80902777777778 44.01041666666666  19.774305555555557 45.30381944444444  20.46875 46.328125  C 21.163194444444446 47.35243055555556  22.67361111111111 48.628472222222214  25 50.15625  C 27.881944444444446 51.99652777777777  31.805555555555557 53.159722222222214  36.770833333333336 53.64583333333334  L 34.114583333333336 56.35416666666666  C 29.184027777777782 61.28472222222222  25.868055555555557 64.58333333333333  24.166666666666664 66.25  C 23.402777777777782 67.01388888888889  23.020833333333336 67.92534722222223  23.020833333333336 68.984375  C 23.020833333333336 70.04340277777777  23.402777777777782 70.95486111111111  24.166666666666664 71.71875  L 24.635416666666664 72.1875  C 25.399305555555557 72.95138888888889  26.310763888888893 73.33333333333333  27.369791666666664 73.33333333333333  C 28.428819444444446 73.33333333333333  29.340277777777782 72.95138888888889  30.104166666666664 72.1875  L 40.05208333333333 62.23958333333333  C 44.01041666666667 66.23263888888889  47.32638888888889 69.54861111111111  50 72.1875  C 50.76388888888889 72.95138888888889  51.67534722222222 73.33333333333333  52.734375 73.33333333333333  C 53.793402777777786 73.33333333333333  54.704861111111114 72.95138888888889  55.46875 72.1875  L 55.9375 71.71875  C 56.70138888888889 70.95486111111111  57.08333333333333 70.04340277777777  57.08333333333333 68.984375  C 57.08333333333333 67.92534722222223  56.70138888888889 67.01388888888889  55.9375 66.25  L 45.98958333333333 56.35416666666666  L 43.28125 53.64583333333334  C 48.17708333333334 53.159722222222214  52.08333333333334 51.99652777777777  55 50.15625  C 57.32638888888889 48.628472222222214  58.836805555555564 47.35243055555556  59.53125 46.328125  Z M 51.92708333333333 35.46875  C 55.22569444444446 32.170138888888886  56.875 28.194444444444436  56.875 23.54166666666667  C 56.875 18.888888888888886  55.22569444444446 14.913194444444438  51.92708333333333 11.61458333333333  C 48.62847222222222 8.315972222222214  44.65277777777778 6.66666666666667  40 6.66666666666667  C 35.34722222222223 6.66666666666667  31.371527777777782 8.315972222222214  28.072916666666664 11.61458333333333  C 24.774305555555557 14.913194444444438  23.125000000000004 18.888888888888886  23.125 23.54166666666667  C 23.125000000000004 28.194444444444436  24.774305555555557 32.170138888888886  28.072916666666664 35.46875  C 31.371527777777782 38.76736111111111  35.34722222222223 40.41666666666666  40 40.41666666666666  C 44.65277777777778 40.41666666666666  48.62847222222222 38.76736111111111  51.92708333333333 35.46875  Z M 75.59895833333333 4.40104166666667  C 78.53298611111111 7.3350694444444375  80 10.868055555555545  80 15  L 80 65  C 80 69.13194444444444  78.53298611111111 72.66493055555556  75.59895833333333 75.59895833333333  C 72.66493055555556 78.53298611111111  69.13194444444446 80  65 80  L 15 80  C 10.868055555555555 80  7.3350694444444455 78.53298611111111  4.401041666666667 75.59895833333333  C 1.4670138888888886 72.66493055555556  0 69.13194444444444  0 65  L 0 15  C 0 10.868055555555545  1.4670138888888886 7.3350694444444375  4.401041666666667 4.40104166666667  C 7.3350694444444455 1.467013888888884  10.868055555555555 0  15 0  L 65 0  C 69.13194444444446 0  72.66493055555556 1.467013888888884  75.59895833333333 4.40104166666667  Z " fill-rule="evenodd" />
    </mask>
  </defs>
  <g transform="matrix(1 0 0 1 -1164 -2314 )">
    <path d="M 45.859375 17.68229166666667  C 47.47395833333334 19.296875  48.28125000000001 21.25  48.28125 23.54166666666667  C 48.28125000000001 25.83333333333333  47.47395833333334 27.78645833333333  45.859375 29.40104166666667  C 44.24479166666667 31.015625  42.29166666666667 31.82291666666667  40 31.82291666666667  C 37.708333333333336 31.82291666666667  35.755208333333336 31.015625  34.140625 29.40104166666667  C 32.526041666666664 27.78645833333333  31.71875 25.83333333333333  31.71875 23.54166666666667  C 31.71875 21.25  32.526041666666664 19.296875  34.140625 17.68229166666667  C 35.755208333333336 16.06770833333333  37.708333333333336 15.26041666666667  40 15.26041666666667  C 42.29166666666667 15.26041666666667  44.24479166666667 16.06770833333333  45.859375 17.68229166666667  Z M 59.53125 46.328125  C 60.22569444444446 45.30381944444444  60.19097222222222 44.01041666666666  59.42708333333333 42.44791666666666  C 59.079861111111114 41.753472222222214  58.59375 41.19791666666666  57.96875 40.78125  C 57.34375 40.36458333333334  56.51909722222222 40.19965277777777  55.49479166666667 40.28645833333334  C 54.470486111111114 40.37326388888889  53.42013888888889 40.85069444444444  52.34375 41.71875  C 51.99652777777778 41.99652777777777  51.493055555555564 42.34375  50.83333333333333 42.76041666666666  C 50.173611111111114 43.17708333333334  48.767361111111114 43.73263888888889  46.61458333333333 44.42708333333334  C 44.461805555555564 45.12152777777777  42.25694444444444 45.46875  40 45.46875  C 37.74305555555556 45.46875  35.59027777777778 45.15625  33.541666666666664 44.53125  C 31.493055555555557 43.90625  30 43.28125  29.0625 42.65625  L 27.65625 41.71875  C 26.57986111111111 40.85069444444444  25.52951388888889 40.37326388888889  24.505208333333336 40.28645833333334  C 23.480902777777782 40.19965277777777  22.656250000000004 40.36458333333334  22.03125 40.78125  C 21.406250000000004 41.19791666666666  20.920138888888893 41.753472222222214  20.572916666666664 42.44791666666666  C 19.80902777777778 44.01041666666666  19.774305555555557 45.30381944444444  20.46875 46.328125  C 21.163194444444446 47.35243055555556  22.67361111111111 48.628472222222214  25 50.15625  C 27.881944444444446 51.99652777777777  31.805555555555557 53.159722222222214  36.770833333333336 53.64583333333334  L 34.114583333333336 56.35416666666666  C 29.184027777777782 61.28472222222222  25.868055555555557 64.58333333333333  24.166666666666664 66.25  C 23.402777777777782 67.01388888888889  23.020833333333336 67.92534722222223  23.020833333333336 68.984375  C 23.020833333333336 70.04340277777777  23.402777777777782 70.95486111111111  24.166666666666664 71.71875  L 24.635416666666664 72.1875  C 25.399305555555557 72.95138888888889  26.310763888888893 73.33333333333333  27.369791666666664 73.33333333333333  C 28.428819444444446 73.33333333333333  29.340277777777782 72.95138888888889  30.104166666666664 72.1875  L 40.05208333333333 62.23958333333333  C 44.01041666666667 66.23263888888889  47.32638888888889 69.54861111111111  50 72.1875  C 50.76388888888889 72.95138888888889  51.67534722222222 73.33333333333333  52.734375 73.33333333333333  C 53.793402777777786 73.33333333333333  54.704861111111114 72.95138888888889  55.46875 72.1875  L 55.9375 71.71875  C 56.70138888888889 70.95486111111111  57.08333333333333 70.04340277777777  57.08333333333333 68.984375  C 57.08333333333333 67.92534722222223  56.70138888888889 67.01388888888889  55.9375 66.25  L 45.98958333333333 56.35416666666666  L 43.28125 53.64583333333334  C 48.17708333333334 53.159722222222214  52.08333333333334 51.99652777777777  55 50.15625  C 57.32638888888889 48.628472222222214  58.836805555555564 47.35243055555556  59.53125 46.328125  Z M 51.92708333333333 35.46875  C 55.22569444444446 32.170138888888886  56.875 28.194444444444436  56.875 23.54166666666667  C 56.875 18.888888888888886  55.22569444444446 14.913194444444438  51.92708333333333 11.61458333333333  C 48.62847222222222 8.315972222222214  44.65277777777778 6.66666666666667  40 6.66666666666667  C 35.34722222222223 6.66666666666667  31.371527777777782 8.315972222222214  28.072916666666664 11.61458333333333  C 24.774305555555557 14.913194444444438  23.125000000000004 18.888888888888886  23.125 23.54166666666667  C 23.125000000000004 28.194444444444436  24.774305555555557 32.170138888888886  28.072916666666664 35.46875  C 31.371527777777782 38.76736111111111  35.34722222222223 40.41666666666666  40 40.41666666666666  C 44.65277777777778 40.41666666666666  48.62847222222222 38.76736111111111  51.92708333333333 35.46875  Z M 75.59895833333333 4.40104166666667  C 78.53298611111111 7.3350694444444375  80 10.868055555555545  80 15  L 80 65  C 80 69.13194444444444  78.53298611111111 72.66493055555556  75.59895833333333 75.59895833333333  C 72.66493055555556 78.53298611111111  69.13194444444446 80  65 80  L 15 80  C 10.868055555555555 80  7.3350694444444455 78.53298611111111  4.401041666666667 75.59895833333333  C 1.4670138888888886 72.66493055555556  0 69.13194444444444  0 65  L 0 15  C 0 10.868055555555545  1.4670138888888886 7.3350694444444375  4.401041666666667 4.40104166666667  C 7.3350694444444455 1.467013888888884  10.868055555555555 0  15 0  L 65 0  C 69.13194444444446 0  72.66493055555556 1.467013888888884  75.59895833333333 4.40104166666667  Z " fill-rule="nonzero" fill="rgba(255, 255, 255, 0.6980392156862745)" stroke="none" transform="matrix(1 0 0 1 1164 2314 )" class="fill" />
    <path d="M 45.859375 17.68229166666667  C 47.47395833333334 19.296875  48.28125000000001 21.25  48.28125 23.54166666666667  C 48.28125000000001 25.83333333333333  47.47395833333334 27.78645833333333  45.859375 29.40104166666667  C 44.24479166666667 31.015625  42.29166666666667 31.82291666666667  40 31.82291666666667  C 37.708333333333336 31.82291666666667  35.755208333333336 31.015625  34.140625 29.40104166666667  C 32.526041666666664 27.78645833333333  31.71875 25.83333333333333  31.71875 23.54166666666667  C 31.71875 21.25  32.526041666666664 19.296875  34.140625 17.68229166666667  C 35.755208333333336 16.06770833333333  37.708333333333336 15.26041666666667  40 15.26041666666667  C 42.29166666666667 15.26041666666667  44.24479166666667 16.06770833333333  45.859375 17.68229166666667  Z " stroke-width="0" stroke-dasharray="0" stroke="rgba(255, 255, 255, 0)" fill="none" transform="matrix(1 0 0 1 1164 2314 )" class="stroke" mask="url(#Clip4)" />
    <path d="M 59.53125 46.328125  C 60.22569444444446 45.30381944444444  60.19097222222222 44.01041666666666  59.42708333333333 42.44791666666666  C 59.079861111111114 41.753472222222214  58.59375 41.19791666666666  57.96875 40.78125  C 57.34375 40.36458333333334  56.51909722222222 40.19965277777777  55.49479166666667 40.28645833333334  C 54.470486111111114 40.37326388888889  53.42013888888889 40.85069444444444  52.34375 41.71875  C 51.99652777777778 41.99652777777777  51.493055555555564 42.34375  50.83333333333333 42.76041666666666  C 50.173611111111114 43.17708333333334  48.767361111111114 43.73263888888889  46.61458333333333 44.42708333333334  C 44.461805555555564 45.12152777777777  42.25694444444444 45.46875  40 45.46875  C 37.74305555555556 45.46875  35.59027777777778 45.15625  33.541666666666664 44.53125  C 31.493055555555557 43.90625  30 43.28125  29.0625 42.65625  L 27.65625 41.71875  C 26.57986111111111 40.85069444444444  25.52951388888889 40.37326388888889  24.505208333333336 40.28645833333334  C 23.480902777777782 40.19965277777777  22.656250000000004 40.36458333333334  22.03125 40.78125  C 21.406250000000004 41.19791666666666  20.920138888888893 41.753472222222214  20.572916666666664 42.44791666666666  C 19.80902777777778 44.01041666666666  19.774305555555557 45.30381944444444  20.46875 46.328125  C 21.163194444444446 47.35243055555556  22.67361111111111 48.628472222222214  25 50.15625  C 27.881944444444446 51.99652777777777  31.805555555555557 53.159722222222214  36.770833333333336 53.64583333333334  L 34.114583333333336 56.35416666666666  C 29.184027777777782 61.28472222222222  25.868055555555557 64.58333333333333  24.166666666666664 66.25  C 23.402777777777782 67.01388888888889  23.020833333333336 67.92534722222223  23.020833333333336 68.984375  C 23.020833333333336 70.04340277777777  23.402777777777782 70.95486111111111  24.166666666666664 71.71875  L 24.635416666666664 72.1875  C 25.399305555555557 72.95138888888889  26.310763888888893 73.33333333333333  27.369791666666664 73.33333333333333  C 28.428819444444446 73.33333333333333  29.340277777777782 72.95138888888889  30.104166666666664 72.1875  L 40.05208333333333 62.23958333333333  C 44.01041666666667 66.23263888888889  47.32638888888889 69.54861111111111  50 72.1875  C 50.76388888888889 72.95138888888889  51.67534722222222 73.33333333333333  52.734375 73.33333333333333  C 53.793402777777786 73.33333333333333  54.704861111111114 72.95138888888889  55.46875 72.1875  L 55.9375 71.71875  C 56.70138888888889 70.95486111111111  57.08333333333333 70.04340277777777  57.08333333333333 68.984375  C 57.08333333333333 67.92534722222223  56.70138888888889 67.01388888888889  55.9375 66.25  L 45.98958333333333 56.35416666666666  L 43.28125 53.64583333333334  C 48.17708333333334 53.159722222222214  52.08333333333334 51.99652777777777  55 50.15625  C 57.32638888888889 48.628472222222214  58.836805555555564 47.35243055555556  59.53125 46.328125  Z " stroke-width="0" stroke-dasharray="0" stroke="rgba(255, 255, 255, 0)" fill="none" transform="matrix(1 0 0 1 1164 2314 )" class="stroke" mask="url(#Clip4)" />
    <path d="M 51.92708333333333 35.46875  C 55.22569444444446 32.170138888888886  56.875 28.194444444444436  56.875 23.54166666666667  C 56.875 18.888888888888886  55.22569444444446 14.913194444444438  51.92708333333333 11.61458333333333  C 48.62847222222222 8.315972222222214  44.65277777777778 6.66666666666667  40 6.66666666666667  C 35.34722222222223 6.66666666666667  31.371527777777782 8.315972222222214  28.072916666666664 11.61458333333333  C 24.774305555555557 14.913194444444438  23.125000000000004 18.888888888888886  23.125 23.54166666666667  C 23.125000000000004 28.194444444444436  24.774305555555557 32.170138888888886  28.072916666666664 35.46875  C 31.371527777777782 38.76736111111111  35.34722222222223 40.41666666666666  40 40.41666666666666  C 44.65277777777778 40.41666666666666  48.62847222222222 38.76736111111111  51.92708333333333 35.46875  Z " stroke-width="0" stroke-dasharray="0" stroke="rgba(255, 255, 255, 0)" fill="none" transform="matrix(1 0 0 1 1164 2314 )" class="stroke" mask="url(#Clip4)" />
    <path d="M 75.59895833333333 4.40104166666667  C 78.53298611111111 7.3350694444444375  80 10.868055555555545  80 15  L 80 65  C 80 69.13194444444444  78.53298611111111 72.66493055555556  75.59895833333333 75.59895833333333  C 72.66493055555556 78.53298611111111  69.13194444444446 80  65 80  L 15 80  C 10.868055555555555 80  7.3350694444444455 78.53298611111111  4.401041666666667 75.59895833333333  C 1.4670138888888886 72.66493055555556  0 69.13194444444444  0 65  L 0 15  C 0 10.868055555555545  1.4670138888888886 7.3350694444444375  4.401041666666667 4.40104166666667  C 7.3350694444444455 1.467013888888884  10.868055555555555 0  15 0  L 65 0  C 69.13194444444446 0  72.66493055555556 1.467013888888884  75.59895833333333 4.40104166666667  Z " stroke-width="0" stroke-dasharray="0" stroke="rgba(255, 255, 255, 0)" fill="none" transform="matrix(1 0 0 1 1164 2314 )" class="stroke" mask="url(#Clip4)" />
  </g>
</svg>