<?xml version="1.0" encoding="utf-8"?>
<svg version="1.1" xmlns:xlink="http://www.w3.org/1999/xlink" width="80px" height="80px" xmlns="http://www.w3.org/2000/svg">
  <defs>
    <pattern id="BGPattern" patternUnits="userSpaceOnUse" alignment="0 0" imageRepeat="None" />
    <mask fill="white" id="Clip5">
      <path d="M 48.22916666666667 51.82291666666666  C 48.50694444444444 51.82291666666666  48.73263888888889 51.92708333333334  48.90625 52.13541666666666  C 49.35763888888889 52.58680555555556  49.35763888888889 53.03819444444444  48.90625 53.48958333333334  C 47.06597222222222 55.32986111111111  44.09722222222222 56.25  40 56.25  C 35.90277777777778 56.25  32.93402777777778 55.32986111111111  31.09375 53.48958333333334  C 30.64236111111111 53.03819444444444  30.64236111111111 52.58680555555556  31.09375 52.13541666666666  C 31.26736111111111 51.92708333333334  31.493055555555557 51.82291666666666  31.770833333333336 51.82291666666666  C 32.048611111111114 51.82291666666666  32.27430555555556 51.92708333333334  32.447916666666664 52.13541666666666  C 33.90625 53.59375  36.423611111111114 54.32291666666666  40 54.32291666666666  C 43.57638888888889 54.32291666666666  46.09375 53.59375  47.55208333333333 52.13541666666666  C 47.72569444444446 51.92708333333334  47.95138888888889 51.82291666666666  48.22916666666667 51.82291666666666  Z M 34.036458333333336 41.171875  C 34.817708333333336 41.953125  35.208333333333336 42.89930555555556  35.208333333333336 44.01041666666666  C 35.208333333333336 45.08680555555556  34.80902777777778 46.02430555555556  34.010416666666664 46.82291666666666  C 33.21180555555556 47.62152777777777  32.27430555555556 48.02083333333334  31.197916666666664 48.02083333333334  C 30.121527777777782 48.02083333333334  29.184027777777782 47.62152777777777  28.385416666666664 46.82291666666666  C 27.586805555555557 46.02430555555556  27.1875 45.08680555555556  27.1875 44.01041666666666  C 27.1875 42.89930555555556  27.578125 41.953125  28.359375 41.171875  C 29.140625 40.390625  30.086805555555557 40  31.197916666666664 40  C 32.30902777777778 40  33.255208333333336 40.390625  34.036458333333336 41.171875  Z M 51.640625 41.171875  C 52.42187500000001 41.953125  52.81250000000001 42.89930555555556  52.8125 44.01041666666666  C 52.81250000000001 45.08680555555556  52.41319444444446 46.02430555555556  51.61458333333333 46.82291666666666  C 50.81597222222222 47.62152777777777  49.87847222222222 48.02083333333334  48.80208333333333 48.02083333333334  C 47.72569444444446 48.02083333333334  46.78819444444446 47.62152777777777  45.98958333333333 46.82291666666666  C 45.19097222222222 46.02430555555556  44.79166666666667 45.08680555555556  44.79166666666667 44.01041666666666  C 44.79166666666667 42.89930555555556  45.18229166666667 41.953125  45.96354166666667 41.171875  C 46.74479166666667 40.390625  47.69097222222222 40  48.80208333333333 40  C 49.91319444444446 40  50.85937500000001 40.390625  51.640625 41.171875  Z M 63.203125 41.484375  C 63.74131944444446 40.63368055555556  64.01041666666667 39.6875  64.01041666666667 38.64583333333333  C 64.01041666666667 37.1875  63.48958333333333 35.9375  62.44791666666667 34.89583333333333  C 61.40625 33.85416666666667  60.13888888888889 33.33333333333333  58.64583333333333 33.33333333333333  C 57.1875 33.33333333333333  55.92013888888889 33.87152777777778  54.84375 34.94791666666667  C 50.92013888888889 32.23958333333333  46.28472222222222 30.81597222222222  40.9375 30.67708333333333  L 43.75 18.02083333333333  L 52.65625 20.05208333333333  C 52.69097222222222 21.163194444444436  53.09895833333333 22.100694444444436  53.88020833333333 22.86458333333333  C 54.66145833333333 23.628472222222214  55.590277777777786 24.01041666666667  56.66666666666667 24.01041666666667  C 57.777777777777786 24.01041666666667  58.72395833333333 23.61979166666667  59.50520833333333 22.83854166666667  C 60.28645833333333 22.05729166666667  60.67708333333333 21.111111111111107  60.67708333333333 20  C 60.67708333333333 18.888888888888886  60.28645833333333 17.94270833333333  59.50520833333333 17.16145833333333  C 58.72395833333333 16.38020833333333  57.777777777777786 15.98958333333333  56.66666666666667 15.98958333333333  C 55 15.98958333333333  53.80208333333333 16.736111111111107  53.07291666666667 18.22916666666667  L 43.22916666666667 16.04166666666667  C 42.63888888888889 15.868055555555545  42.274305555555564 16.09375  42.13541666666667 16.71875  L 39.010416666666664 30.67708333333333  C 33.66319444444444 30.88541666666666  29.0625 32.326388888888886  25.208333333333336 35  C 24.166666666666664 33.88888888888889  22.881944444444446 33.33333333333333  21.354166666666664 33.33333333333333  C 19.861111111111114 33.33333333333333  18.59375 33.85416666666667  17.552083333333332 34.89583333333333  C 16.510416666666668 35.9375  15.989583333333332 37.1875  15.989583333333332 38.64583333333333  C 15.989583333333332 39.6875  16.267361111111114 40.64236111111111  16.822916666666668 41.51041666666666  C 17.37847222222222 42.378472222222214  18.10763888888889 43.03819444444444  19.010416666666668 43.48958333333334  C 18.836805555555557 44.35763888888889  18.75 45.190972222222214  18.75 45.98958333333334  C 18.75 50.22569444444444  20.833333333333336 53.84548611111111  25 56.84895833333334  C 29.166666666666664 59.85243055555556  34.18402777777778 61.35416666666667  40.05208333333333 61.35416666666667  C 45.954861111111114 61.35416666666667  50.98958333333334 59.85243055555556  55.15625 56.84895833333334  C 59.32291666666667 53.84548611111111  61.40625 50.22569444444444  61.40625 45.98958333333334  C 61.40625 45.12152777777777  61.30208333333333 44.27083333333334  61.09375 43.4375  C 61.961805555555564 42.98611111111111  62.664930555555564 42.33506944444444  63.203125 41.484375  Z M 75.59895833333333 4.40104166666667  C 78.53298611111111 7.3350694444444375  80 10.868055555555545  80 15  L 80 65  C 80 69.13194444444444  78.53298611111111 72.66493055555556  75.59895833333333 75.59895833333333  C 72.66493055555556 78.53298611111111  69.13194444444446 80  65 80  L 15 80  C 10.868055555555555 80  7.3350694444444455 78.53298611111111  4.401041666666667 75.59895833333333  C 1.4670138888888886 72.66493055555556  0 69.13194444444444  0 65  L 0 15  C 0 10.868055555555545  1.4670138888888886 7.3350694444444375  4.401041666666667 4.40104166666667  C 7.3350694444444455 1.467013888888884  10.868055555555555 0  15 0  L 65 0  C 69.13194444444446 0  72.66493055555556 1.467013888888884  75.59895833333333 4.40104166666667  Z " fill-rule="evenodd" />
    </mask>
  </defs>
  <g transform="matrix(1 0 0 1 -1344 -2314 )">
    <path d="M 48.22916666666667 51.82291666666666  C 48.50694444444444 51.82291666666666  48.73263888888889 51.92708333333334  48.90625 52.13541666666666  C 49.35763888888889 52.58680555555556  49.35763888888889 53.03819444444444  48.90625 53.48958333333334  C 47.06597222222222 55.32986111111111  44.09722222222222 56.25  40 56.25  C 35.90277777777778 56.25  32.93402777777778 55.32986111111111  31.09375 53.48958333333334  C 30.64236111111111 53.03819444444444  30.64236111111111 52.58680555555556  31.09375 52.13541666666666  C 31.26736111111111 51.92708333333334  31.493055555555557 51.82291666666666  31.770833333333336 51.82291666666666  C 32.048611111111114 51.82291666666666  32.27430555555556 51.92708333333334  32.447916666666664 52.13541666666666  C 33.90625 53.59375  36.423611111111114 54.32291666666666  40 54.32291666666666  C 43.57638888888889 54.32291666666666  46.09375 53.59375  47.55208333333333 52.13541666666666  C 47.72569444444446 51.92708333333334  47.95138888888889 51.82291666666666  48.22916666666667 51.82291666666666  Z M 34.036458333333336 41.171875  C 34.817708333333336 41.953125  35.208333333333336 42.89930555555556  35.208333333333336 44.01041666666666  C 35.208333333333336 45.08680555555556  34.80902777777778 46.02430555555556  34.010416666666664 46.82291666666666  C 33.21180555555556 47.62152777777777  32.27430555555556 48.02083333333334  31.197916666666664 48.02083333333334  C 30.121527777777782 48.02083333333334  29.184027777777782 47.62152777777777  28.385416666666664 46.82291666666666  C 27.586805555555557 46.02430555555556  27.1875 45.08680555555556  27.1875 44.01041666666666  C 27.1875 42.89930555555556  27.578125 41.953125  28.359375 41.171875  C 29.140625 40.390625  30.086805555555557 40  31.197916666666664 40  C 32.30902777777778 40  33.255208333333336 40.390625  34.036458333333336 41.171875  Z M 51.640625 41.171875  C 52.42187500000001 41.953125  52.81250000000001 42.89930555555556  52.8125 44.01041666666666  C 52.81250000000001 45.08680555555556  52.41319444444446 46.02430555555556  51.61458333333333 46.82291666666666  C 50.81597222222222 47.62152777777777  49.87847222222222 48.02083333333334  48.80208333333333 48.02083333333334  C 47.72569444444446 48.02083333333334  46.78819444444446 47.62152777777777  45.98958333333333 46.82291666666666  C 45.19097222222222 46.02430555555556  44.79166666666667 45.08680555555556  44.79166666666667 44.01041666666666  C 44.79166666666667 42.89930555555556  45.18229166666667 41.953125  45.96354166666667 41.171875  C 46.74479166666667 40.390625  47.69097222222222 40  48.80208333333333 40  C 49.91319444444446 40  50.85937500000001 40.390625  51.640625 41.171875  Z M 63.203125 41.484375  C 63.74131944444446 40.63368055555556  64.01041666666667 39.6875  64.01041666666667 38.64583333333333  C 64.01041666666667 37.1875  63.48958333333333 35.9375  62.44791666666667 34.89583333333333  C 61.40625 33.85416666666667  60.13888888888889 33.33333333333333  58.64583333333333 33.33333333333333  C 57.1875 33.33333333333333  55.92013888888889 33.87152777777778  54.84375 34.94791666666667  C 50.92013888888889 32.23958333333333  46.28472222222222 30.81597222222222  40.9375 30.67708333333333  L 43.75 18.02083333333333  L 52.65625 20.05208333333333  C 52.69097222222222 21.163194444444436  53.09895833333333 22.100694444444436  53.88020833333333 22.86458333333333  C 54.66145833333333 23.628472222222214  55.590277777777786 24.01041666666667  56.66666666666667 24.01041666666667  C 57.777777777777786 24.01041666666667  58.72395833333333 23.61979166666667  59.50520833333333 22.83854166666667  C 60.28645833333333 22.05729166666667  60.67708333333333 21.111111111111107  60.67708333333333 20  C 60.67708333333333 18.888888888888886  60.28645833333333 17.94270833333333  59.50520833333333 17.16145833333333  C 58.72395833333333 16.38020833333333  57.777777777777786 15.98958333333333  56.66666666666667 15.98958333333333  C 55 15.98958333333333  53.80208333333333 16.736111111111107  53.07291666666667 18.22916666666667  L 43.22916666666667 16.04166666666667  C 42.63888888888889 15.868055555555545  42.274305555555564 16.09375  42.13541666666667 16.71875  L 39.010416666666664 30.67708333333333  C 33.66319444444444 30.88541666666666  29.0625 32.326388888888886  25.208333333333336 35  C 24.166666666666664 33.88888888888889  22.881944444444446 33.33333333333333  21.354166666666664 33.33333333333333  C 19.861111111111114 33.33333333333333  18.59375 33.85416666666667  17.552083333333332 34.89583333333333  C 16.510416666666668 35.9375  15.989583333333332 37.1875  15.989583333333332 38.64583333333333  C 15.989583333333332 39.6875  16.267361111111114 40.64236111111111  16.822916666666668 41.51041666666666  C 17.37847222222222 42.378472222222214  18.10763888888889 43.03819444444444  19.010416666666668 43.48958333333334  C 18.836805555555557 44.35763888888889  18.75 45.190972222222214  18.75 45.98958333333334  C 18.75 50.22569444444444  20.833333333333336 53.84548611111111  25 56.84895833333334  C 29.166666666666664 59.85243055555556  34.18402777777778 61.35416666666667  40.05208333333333 61.35416666666667  C 45.954861111111114 61.35416666666667  50.98958333333334 59.85243055555556  55.15625 56.84895833333334  C 59.32291666666667 53.84548611111111  61.40625 50.22569444444444  61.40625 45.98958333333334  C 61.40625 45.12152777777777  61.30208333333333 44.27083333333334  61.09375 43.4375  C 61.961805555555564 42.98611111111111  62.664930555555564 42.33506944444444  63.203125 41.484375  Z M 75.59895833333333 4.40104166666667  C 78.53298611111111 7.3350694444444375  80 10.868055555555545  80 15  L 80 65  C 80 69.13194444444444  78.53298611111111 72.66493055555556  75.59895833333333 75.59895833333333  C 72.66493055555556 78.53298611111111  69.13194444444446 80  65 80  L 15 80  C 10.868055555555555 80  7.3350694444444455 78.53298611111111  4.401041666666667 75.59895833333333  C 1.4670138888888886 72.66493055555556  0 69.13194444444444  0 65  L 0 15  C 0 10.868055555555545  1.4670138888888886 7.3350694444444375  4.401041666666667 4.40104166666667  C 7.3350694444444455 1.467013888888884  10.868055555555555 0  15 0  L 65 0  C 69.13194444444446 0  72.66493055555556 1.467013888888884  75.59895833333333 4.40104166666667  Z " fill-rule="nonzero" fill="rgba(255, 255, 255, 0.6901960784313725)" stroke="none" transform="matrix(1 0 0 1 1344 2314 )" class="fill" />
    <path d="M 48.22916666666667 51.82291666666666  C 48.50694444444444 51.82291666666666  48.73263888888889 51.92708333333334  48.90625 52.13541666666666  C 49.35763888888889 52.58680555555556  49.35763888888889 53.03819444444444  48.90625 53.48958333333334  C 47.06597222222222 55.32986111111111  44.09722222222222 56.25  40 56.25  C 35.90277777777778 56.25  32.93402777777778 55.32986111111111  31.09375 53.48958333333334  C 30.64236111111111 53.03819444444444  30.64236111111111 52.58680555555556  31.09375 52.13541666666666  C 31.26736111111111 51.92708333333334  31.493055555555557 51.82291666666666  31.770833333333336 51.82291666666666  C 32.048611111111114 51.82291666666666  32.27430555555556 51.92708333333334  32.447916666666664 52.13541666666666  C 33.90625 53.59375  36.423611111111114 54.32291666666666  40 54.32291666666666  C 43.57638888888889 54.32291666666666  46.09375 53.59375  47.55208333333333 52.13541666666666  C 47.72569444444446 51.92708333333334  47.95138888888889 51.82291666666666  48.22916666666667 51.82291666666666  Z " stroke-width="0" stroke-dasharray="0" stroke="rgba(255, 255, 255, 0)" fill="none" transform="matrix(1 0 0 1 1344 2314 )" class="stroke" mask="url(#Clip5)" />
    <path d="M 34.036458333333336 41.171875  C 34.817708333333336 41.953125  35.208333333333336 42.89930555555556  35.208333333333336 44.01041666666666  C 35.208333333333336 45.08680555555556  34.80902777777778 46.02430555555556  34.010416666666664 46.82291666666666  C 33.21180555555556 47.62152777777777  32.27430555555556 48.02083333333334  31.197916666666664 48.02083333333334  C 30.121527777777782 48.02083333333334  29.184027777777782 47.62152777777777  28.385416666666664 46.82291666666666  C 27.586805555555557 46.02430555555556  27.1875 45.08680555555556  27.1875 44.01041666666666  C 27.1875 42.89930555555556  27.578125 41.953125  28.359375 41.171875  C 29.140625 40.390625  30.086805555555557 40  31.197916666666664 40  C 32.30902777777778 40  33.255208333333336 40.390625  34.036458333333336 41.171875  Z " stroke-width="0" stroke-dasharray="0" stroke="rgba(255, 255, 255, 0)" fill="none" transform="matrix(1 0 0 1 1344 2314 )" class="stroke" mask="url(#Clip5)" />
    <path d="M 51.640625 41.171875  C 52.42187500000001 41.953125  52.81250000000001 42.89930555555556  52.8125 44.01041666666666  C 52.81250000000001 45.08680555555556  52.41319444444446 46.02430555555556  51.61458333333333 46.82291666666666  C 50.81597222222222 47.62152777777777  49.87847222222222 48.02083333333334  48.80208333333333 48.02083333333334  C 47.72569444444446 48.02083333333334  46.78819444444446 47.62152777777777  45.98958333333333 46.82291666666666  C 45.19097222222222 46.02430555555556  44.79166666666667 45.08680555555556  44.79166666666667 44.01041666666666  C 44.79166666666667 42.89930555555556  45.18229166666667 41.953125  45.96354166666667 41.171875  C 46.74479166666667 40.390625  47.69097222222222 40  48.80208333333333 40  C 49.91319444444446 40  50.85937500000001 40.390625  51.640625 41.171875  Z " stroke-width="0" stroke-dasharray="0" stroke="rgba(255, 255, 255, 0)" fill="none" transform="matrix(1 0 0 1 1344 2314 )" class="stroke" mask="url(#Clip5)" />
    <path d="M 63.203125 41.484375  C 63.74131944444446 40.63368055555556  64.01041666666667 39.6875  64.01041666666667 38.64583333333333  C 64.01041666666667 37.1875  63.48958333333333 35.9375  62.44791666666667 34.89583333333333  C 61.40625 33.85416666666667  60.13888888888889 33.33333333333333  58.64583333333333 33.33333333333333  C 57.1875 33.33333333333333  55.92013888888889 33.87152777777778  54.84375 34.94791666666667  C 50.92013888888889 32.23958333333333  46.28472222222222 30.81597222222222  40.9375 30.67708333333333  L 43.75 18.02083333333333  L 52.65625 20.05208333333333  C 52.69097222222222 21.163194444444436  53.09895833333333 22.100694444444436  53.88020833333333 22.86458333333333  C 54.66145833333333 23.628472222222214  55.590277777777786 24.01041666666667  56.66666666666667 24.01041666666667  C 57.777777777777786 24.01041666666667  58.72395833333333 23.61979166666667  59.50520833333333 22.83854166666667  C 60.28645833333333 22.05729166666667  60.67708333333333 21.111111111111107  60.67708333333333 20  C 60.67708333333333 18.888888888888886  60.28645833333333 17.94270833333333  59.50520833333333 17.16145833333333  C 58.72395833333333 16.38020833333333  57.777777777777786 15.98958333333333  56.66666666666667 15.98958333333333  C 55 15.98958333333333  53.80208333333333 16.736111111111107  53.07291666666667 18.22916666666667  L 43.22916666666667 16.04166666666667  C 42.63888888888889 15.868055555555545  42.274305555555564 16.09375  42.13541666666667 16.71875  L 39.010416666666664 30.67708333333333  C 33.66319444444444 30.88541666666666  29.0625 32.326388888888886  25.208333333333336 35  C 24.166666666666664 33.88888888888889  22.881944444444446 33.33333333333333  21.354166666666664 33.33333333333333  C 19.861111111111114 33.33333333333333  18.59375 33.85416666666667  17.552083333333332 34.89583333333333  C 16.510416666666668 35.9375  15.989583333333332 37.1875  15.989583333333332 38.64583333333333  C 15.989583333333332 39.6875  16.267361111111114 40.64236111111111  16.822916666666668 41.51041666666666  C 17.37847222222222 42.378472222222214  18.10763888888889 43.03819444444444  19.010416666666668 43.48958333333334  C 18.836805555555557 44.35763888888889  18.75 45.190972222222214  18.75 45.98958333333334  C 18.75 50.22569444444444  20.833333333333336 53.84548611111111  25 56.84895833333334  C 29.166666666666664 59.85243055555556  34.18402777777778 61.35416666666667  40.05208333333333 61.35416666666667  C 45.954861111111114 61.35416666666667  50.98958333333334 59.85243055555556  55.15625 56.84895833333334  C 59.32291666666667 53.84548611111111  61.40625 50.22569444444444  61.40625 45.98958333333334  C 61.40625 45.12152777777777  61.30208333333333 44.27083333333334  61.09375 43.4375  C 61.961805555555564 42.98611111111111  62.664930555555564 42.33506944444444  63.203125 41.484375  Z " stroke-width="0" stroke-dasharray="0" stroke="rgba(255, 255, 255, 0)" fill="none" transform="matrix(1 0 0 1 1344 2314 )" class="stroke" mask="url(#Clip5)" />
    <path d="M 75.59895833333333 4.40104166666667  C 78.53298611111111 7.3350694444444375  80 10.868055555555545  80 15  L 80 65  C 80 69.13194444444444  78.53298611111111 72.66493055555556  75.59895833333333 75.59895833333333  C 72.66493055555556 78.53298611111111  69.13194444444446 80  65 80  L 15 80  C 10.868055555555555 80  7.3350694444444455 78.53298611111111  4.401041666666667 75.59895833333333  C 1.4670138888888886 72.66493055555556  0 69.13194444444444  0 65  L 0 15  C 0 10.868055555555545  1.4670138888888886 7.3350694444444375  4.401041666666667 4.40104166666667  C 7.3350694444444455 1.467013888888884  10.868055555555555 0  15 0  L 65 0  C 69.13194444444446 0  72.66493055555556 1.467013888888884  75.59895833333333 4.40104166666667  Z " stroke-width="0" stroke-dasharray="0" stroke="rgba(255, 255, 255, 0)" fill="none" transform="matrix(1 0 0 1 1344 2314 )" class="stroke" mask="url(#Clip5)" />
  </g>
</svg>