<?xml version="1.0" encoding="utf-8"?>
<svg version="1.1" xmlns:xlink="http://www.w3.org/1999/xlink" width="80px" height="80px" xmlns="http://www.w3.org/2000/svg">
  <defs>
    <pattern id="BGPattern" patternUnits="userSpaceOnUse" alignment="0 0" imageRepeat="None" />
    <mask fill="white" id="Clip6">
      <path d="M 49.46428571428571 60.044642857142854  C 51.36904761904762 61.11607142857142  52.57440476190476 60.55059523809524  53.080357142857146 58.34821428571429  L 59.642857142857146 27.41071428571429  C 59.91071428571429 26.101190476190467  59.75446428571429 25.163690476190467  59.174107142857146 24.59821428571429  C 58.59375 24.032738095238095  57.827380952380956 23.92857142857143  56.875 24.28571428571429  L 18.303571428571427 39.15178571428571  C 17.44047619047619 39.47916666666666  16.852678571428573 39.851190476190474  16.540178571428573 40.267857142857146  C 16.227678571428573 40.6845238095238  16.19047619047619 41.07886904761905  16.428571428571427 41.450892857142854  C 16.666666666666668 41.82291666666666  17.142857142857142 42.11309523809524  17.857142857142858 42.32142857142858  L 27.723214285714285 45.40178571428571  L 50.625 30.982142857142854  C 51.25 30.565476190476186  51.72619047619048 30.476190476190467  52.05357142857143 30.71428571428571  C 52.26190476190476 30.863095238095237  52.202380952380956 31.08630952380952  51.875 31.38392857142857  L 33.348214285714285 48.125  L 32.63392857142857 58.30357142857142  C 33.31845238095238 58.30357142857142  33.98809523809524 57.976190476190474  34.642857142857146 57.32142857142858  L 39.464285714285715 52.67857142857142  L 49.46428571428571 60.044642857142854  Z M 76.83035714285714 24.46428571428571  C 78.9434523809524 29.404761904761898  80 34.58333333333333  80 40  C 80 45.41666666666666  78.9434523809524 50.595238095238095  76.83035714285714 55.53571428571429  C 74.71726190476191 60.476190476190474  71.87500000000001 64.73214285714286  68.30357142857143 68.30357142857142  C 64.73214285714286 71.875  60.47619047619048 74.71726190476191  55.53571428571429 76.83035714285714  C 50.5952380952381 78.94345238095238  45.41666666666667 80  40 80  C 34.583333333333336 80  29.404761904761905 78.94345238095238  24.464285714285715 76.83035714285714  C 19.523809523809526 74.71726190476191  15.267857142857142 71.875  11.696428571428573 68.30357142857142  C 8.125 64.73214285714286  5.282738095238095 60.476190476190474  3.1696428571428568 55.53571428571429  C 1.0565476190476188 50.595238095238095  0 45.41666666666666  0 40  C 0 34.58333333333333  1.0565476190476188 29.404761904761898  3.1696428571428568 24.46428571428571  C 5.282738095238095 19.52380952380952  8.125 15.267857142857144  11.696428571428573 11.696428571428568  C 15.267857142857142 8.125  19.523809523809526 5.282738095238093  24.464285714285715 3.169642857142856  C 29.404761904761905 1.0565476190476186  34.583333333333336 0  40 0  C 45.41666666666667 0  50.5952380952381 1.0565476190476186  55.53571428571429 3.169642857142856  C 60.47619047619048 5.282738095238093  64.73214285714286 8.125  68.30357142857143 11.696428571428568  C 71.87500000000001 15.267857142857144  74.71726190476191 19.52380952380952  76.83035714285714 24.46428571428571  Z " fill-rule="evenodd" />
    </mask>
  </defs>
  <g transform="matrix(1 0 0 1 -1253 -2317 )">
    <path d="M 49.46428571428571 60.044642857142854  C 51.36904761904762 61.11607142857142  52.57440476190476 60.55059523809524  53.080357142857146 58.34821428571429  L 59.642857142857146 27.41071428571429  C 59.91071428571429 26.101190476190467  59.75446428571429 25.163690476190467  59.174107142857146 24.59821428571429  C 58.59375 24.032738095238095  57.827380952380956 23.92857142857143  56.875 24.28571428571429  L 18.303571428571427 39.15178571428571  C 17.44047619047619 39.47916666666666  16.852678571428573 39.851190476190474  16.540178571428573 40.267857142857146  C 16.227678571428573 40.6845238095238  16.19047619047619 41.07886904761905  16.428571428571427 41.450892857142854  C 16.666666666666668 41.82291666666666  17.142857142857142 42.11309523809524  17.857142857142858 42.32142857142858  L 27.723214285714285 45.40178571428571  L 50.625 30.982142857142854  C 51.25 30.565476190476186  51.72619047619048 30.476190476190467  52.05357142857143 30.71428571428571  C 52.26190476190476 30.863095238095237  52.202380952380956 31.08630952380952  51.875 31.38392857142857  L 33.348214285714285 48.125  L 32.63392857142857 58.30357142857142  C 33.31845238095238 58.30357142857142  33.98809523809524 57.976190476190474  34.642857142857146 57.32142857142858  L 39.464285714285715 52.67857142857142  L 49.46428571428571 60.044642857142854  Z M 76.83035714285714 24.46428571428571  C 78.9434523809524 29.404761904761898  80 34.58333333333333  80 40  C 80 45.41666666666666  78.9434523809524 50.595238095238095  76.83035714285714 55.53571428571429  C 74.71726190476191 60.476190476190474  71.87500000000001 64.73214285714286  68.30357142857143 68.30357142857142  C 64.73214285714286 71.875  60.47619047619048 74.71726190476191  55.53571428571429 76.83035714285714  C 50.5952380952381 78.94345238095238  45.41666666666667 80  40 80  C 34.583333333333336 80  29.404761904761905 78.94345238095238  24.464285714285715 76.83035714285714  C 19.523809523809526 74.71726190476191  15.267857142857142 71.875  11.696428571428573 68.30357142857142  C 8.125 64.73214285714286  5.282738095238095 60.476190476190474  3.1696428571428568 55.53571428571429  C 1.0565476190476188 50.595238095238095  0 45.41666666666666  0 40  C 0 34.58333333333333  1.0565476190476188 29.404761904761898  3.1696428571428568 24.46428571428571  C 5.282738095238095 19.52380952380952  8.125 15.267857142857144  11.696428571428573 11.696428571428568  C 15.267857142857142 8.125  19.523809523809526 5.282738095238093  24.464285714285715 3.169642857142856  C 29.404761904761905 1.0565476190476186  34.583333333333336 0  40 0  C 45.41666666666667 0  50.5952380952381 1.0565476190476186  55.53571428571429 3.169642857142856  C 60.47619047619048 5.282738095238093  64.73214285714286 8.125  68.30357142857143 11.696428571428568  C 71.87500000000001 15.267857142857144  74.71726190476191 19.52380952380952  76.83035714285714 24.46428571428571  Z " fill-rule="nonzero" fill="rgba(255, 255, 255, 0.6901960784313725)" stroke="none" transform="matrix(1 0 0 1 1253 2317 )" class="fill" />
    <path d="M 49.46428571428571 60.044642857142854  C 51.36904761904762 61.11607142857142  52.57440476190476 60.55059523809524  53.080357142857146 58.34821428571429  L 59.642857142857146 27.41071428571429  C 59.91071428571429 26.101190476190467  59.75446428571429 25.163690476190467  59.174107142857146 24.59821428571429  C 58.59375 24.032738095238095  57.827380952380956 23.92857142857143  56.875 24.28571428571429  L 18.303571428571427 39.15178571428571  C 17.44047619047619 39.47916666666666  16.852678571428573 39.851190476190474  16.540178571428573 40.267857142857146  C 16.227678571428573 40.6845238095238  16.19047619047619 41.07886904761905  16.428571428571427 41.450892857142854  C 16.666666666666668 41.82291666666666  17.142857142857142 42.11309523809524  17.857142857142858 42.32142857142858  L 27.723214285714285 45.40178571428571  L 50.625 30.982142857142854  C 51.25 30.565476190476186  51.72619047619048 30.476190476190467  52.05357142857143 30.71428571428571  C 52.26190476190476 30.863095238095237  52.202380952380956 31.08630952380952  51.875 31.38392857142857  L 33.348214285714285 48.125  L 32.63392857142857 58.30357142857142  C 33.31845238095238 58.30357142857142  33.98809523809524 57.976190476190474  34.642857142857146 57.32142857142858  L 39.464285714285715 52.67857142857142  L 49.46428571428571 60.044642857142854  Z " stroke-width="0" stroke-dasharray="0" stroke="rgba(255, 255, 255, 0)" fill="none" transform="matrix(1 0 0 1 1253 2317 )" class="stroke" mask="url(#Clip6)" />
    <path d="M 76.83035714285714 24.46428571428571  C 78.9434523809524 29.404761904761898  80 34.58333333333333  80 40  C 80 45.41666666666666  78.9434523809524 50.595238095238095  76.83035714285714 55.53571428571429  C 74.71726190476191 60.476190476190474  71.87500000000001 64.73214285714286  68.30357142857143 68.30357142857142  C 64.73214285714286 71.875  60.47619047619048 74.71726190476191  55.53571428571429 76.83035714285714  C 50.5952380952381 78.94345238095238  45.41666666666667 80  40 80  C 34.583333333333336 80  29.404761904761905 78.94345238095238  24.464285714285715 76.83035714285714  C 19.523809523809526 74.71726190476191  15.267857142857142 71.875  11.696428571428573 68.30357142857142  C 8.125 64.73214285714286  5.282738095238095 60.476190476190474  3.1696428571428568 55.53571428571429  C 1.0565476190476188 50.595238095238095  0 45.41666666666666  0 40  C 0 34.58333333333333  1.0565476190476188 29.404761904761898  3.1696428571428568 24.46428571428571  C 5.282738095238095 19.52380952380952  8.125 15.267857142857144  11.696428571428573 11.696428571428568  C 15.267857142857142 8.125  19.523809523809526 5.282738095238093  24.464285714285715 3.169642857142856  C 29.404761904761905 1.0565476190476186  34.583333333333336 0  40 0  C 45.41666666666667 0  50.5952380952381 1.0565476190476186  55.53571428571429 3.169642857142856  C 60.47619047619048 5.282738095238093  64.73214285714286 8.125  68.30357142857143 11.696428571428568  C 71.87500000000001 15.267857142857144  74.71726190476191 19.52380952380952  76.83035714285714 24.46428571428571  Z " stroke-width="0" stroke-dasharray="0" stroke="rgba(255, 255, 255, 0)" fill="none" transform="matrix(1 0 0 1 1253 2317 )" class="stroke" mask="url(#Clip6)" />
  </g>
</svg>